ISO-10303-21;
HEADER;
/* Generated by software containing ST-Developer
 * from STEP Tools, Inc. (www.steptools.com) 
 */

FILE_DESCRIPTION(
/* description */ (''),
/* implementation_level */ '2;1');

FILE_NAME(
/* name */ '1d2f7611-69c2-4f74-bc19-be60fa32bcb9.stp',
/* time_stamp */ '2023-05-24T01:09:38Z',
/* author */ (''),
/* organization */ (''),
/* preprocessor_version */ 'ST-DEVELOPER v19.2',
/* originating_system */ 'Autodesk Translation Framework v12.6.0.85',
/* authorisation */ '');

FILE_SCHEMA (('AUTOMOTIVE_DESIGN { 1 0 10303 214 3 1 1 }'));
ENDSEC;

DATA;
#10=MECHANICAL_DESIGN_GEOMETRIC_PRESENTATION_REPRESENTATION('',(#13),#331);
#11=SHAPE_REPRESENTATION_RELATIONSHIP('SRR','None',#338,#12);
#12=ADVANCED_BREP_SHAPE_REPRESENTATION('',(#14),#330);
#13=STYLED_ITEM('',(#348),#14);
#14=MANIFOLD_SOLID_BREP('Body1',#123);
#15=FACE_BOUND('',#48,.T.);
#16=FACE_BOUND('',#50,.T.);
#17=FACE_BOUND('',#52,.T.);
#18=FACE_BOUND('',#53,.T.);
#19=FACE_BOUND('',#55,.T.);
#20=B_SPLINE_CURVE_WITH_KNOTS('',3,(#189,#190,#191,#192,#193,#194,#195,
#196,#197,#198),.UNSPECIFIED.,.F.,.F.,(4,2,2,2,4),(0.,0.0483261233188397,
0.0966522466376793,0.144916950197124,0.193181653756568),.UNSPECIFIED.);
#21=B_SPLINE_CURVE_WITH_KNOTS('',3,(#199,#200,#201,#202,#203,#204,#205,
#206,#207,#208,#209,#210,#211,#212,#213,#214,#215,#216,#217,#218,#219,#220,
#221,#222,#223,#224),.UNSPECIFIED.,.F.,.F.,(4,2,2,2,2,2,2,2,2,2,2,2,4),
(0.193181653756568,0.241446357316013,0.289711060875457,0.338037184194297,
0.386363307513137,0.434689430831976,0.483015554150816,0.53128025771026,
0.579544961269705,0.627809664829149,0.676074368388594,0.724400491707434,
0.772726615026273),.UNSPECIFIED.);
#22=B_SPLINE_CURVE_WITH_KNOTS('',3,(#234,#235,#236,#237,#238,#239,#240,
#241,#242,#243,#244,#245,#246,#247,#248,#249,#250,#251,#252,#253,#254,#255,
#256,#257,#258,#259,#260,#261,#262,#263,#264,#265,#266,#267,#268,#269,#270,
#271,#272,#273,#274,#275),.UNSPECIFIED.,.T.,.F.,(4,2,2,2,2,2,2,2,2,2,2,
2,2,2,2,2,2,2,2,2,4),(0.,0.0604340316452085,0.120868063290417,0.241736126580834,
0.36006196705804,0.478387807535246,0.596713648012452,0.715039488489658,
0.835907551780075,0.896341583425283,0.956775615070492,1.0172096467157,1.07764367836091,
1.19851174165133,1.31683758212853,1.43516342260574,1.55348926308294,1.67181510356015,
1.79268316685057,1.85311719849578,1.91355123014098),.UNSPECIFIED.);
#23=B_SPLINE_CURVE_WITH_KNOTS('',3,(#279,#280,#281,#282,#283,#284,#285,
#286,#287,#288,#289,#290,#291,#292,#293,#294,#295,#296,#297,#298,#299,#300),
 .UNSPECIFIED.,.F.,.F.,(4,2,2,2,2,2,2,2,2,2,4),(0.,0.0604340316452086,0.120868063290417,
0.241736126580834,0.36006196705804,0.478387807535246,0.596713648012452,
0.715039488489658,0.835907551780075,0.896341583425284,0.956775615070492),
 .UNSPECIFIED.);
#24=B_SPLINE_CURVE_WITH_KNOTS('',3,(#301,#302,#303,#304,#305,#306,#307,
#308,#309,#310,#311,#312,#313,#314,#315,#316,#317,#318,#319,#320,#321,#322),
 .UNSPECIFIED.,.F.,.F.,(4,2,2,2,2,2,2,2,2,2,4),(0.956775615070492,1.0172096467157,
1.07764367836091,1.19851174165133,1.31683758212853,1.43516342260574,1.55348926308294,
1.67181510356015,1.79268316685057,1.85311719849578,1.91355123014098),
 .UNSPECIFIED.);
#25=LINE('',#187,#29);
#26=LINE('',#229,#30);
#27=LINE('',#277,#31);
#28=LINE('',#326,#32);
#29=VECTOR('',#159,1.2645);
#30=VECTOR('',#164,2.);
#31=VECTOR('',#171,3.);
#32=VECTOR('',#176,4.);
#33=CYLINDRICAL_SURFACE('',#139,1.2645);
#34=CYLINDRICAL_SURFACE('',#141,2.);
#35=CYLINDRICAL_SURFACE('',#145,3.);
#36=CYLINDRICAL_SURFACE('',#146,4.);
#37=FACE_OUTER_BOUND('',#44,.T.);
#38=FACE_OUTER_BOUND('',#45,.T.);
#39=FACE_OUTER_BOUND('',#46,.T.);
#40=FACE_OUTER_BOUND('',#47,.T.);
#41=FACE_OUTER_BOUND('',#49,.T.);
#42=FACE_OUTER_BOUND('',#51,.T.);
#43=FACE_OUTER_BOUND('',#54,.T.);
#44=EDGE_LOOP('',(#85));
#45=EDGE_LOOP('',(#86,#87,#88,#89,#90));
#46=EDGE_LOOP('',(#91,#92,#93,#94));
#47=EDGE_LOOP('',(#95));
#48=EDGE_LOOP('',(#96));
#49=EDGE_LOOP('',(#97,#98,#99,#100,#101));
#50=EDGE_LOOP('',(#102,#103));
#51=EDGE_LOOP('',(#104,#105,#106,#107));
#52=EDGE_LOOP('',(#108,#109));
#53=EDGE_LOOP('',(#110));
#54=EDGE_LOOP('',(#111));
#55=EDGE_LOOP('',(#112));
#56=CIRCLE('',#138,4.);
#57=CIRCLE('',#140,1.2645);
#58=CIRCLE('',#142,2.);
#59=CIRCLE('',#143,2.);
#60=CIRCLE('',#147,4.);
#61=VERTEX_POINT('',#181);
#62=VERTEX_POINT('',#184);
#63=VERTEX_POINT('',#186);
#64=VERTEX_POINT('',#188);
#65=VERTEX_POINT('',#226);
#66=VERTEX_POINT('',#228);
#67=VERTEX_POINT('',#233);
#68=VERTEX_POINT('',#276);
#69=VERTEX_POINT('',#278);
#70=VERTEX_POINT('',#324);
#71=EDGE_CURVE('',#61,#61,#56,.T.);
#72=EDGE_CURVE('',#62,#62,#57,.T.);
#73=EDGE_CURVE('',#62,#63,#25,.T.);
#74=EDGE_CURVE('',#64,#63,#20,.T.);
#75=EDGE_CURVE('',#63,#64,#21,.T.);
#76=EDGE_CURVE('',#65,#65,#58,.T.);
#77=EDGE_CURVE('',#65,#66,#26,.T.);
#78=EDGE_CURVE('',#66,#66,#59,.T.);
#79=EDGE_CURVE('',#67,#67,#22,.T.);
#80=EDGE_CURVE('',#67,#68,#27,.T.);
#81=EDGE_CURVE('',#69,#68,#23,.T.);
#82=EDGE_CURVE('',#68,#69,#24,.T.);
#83=EDGE_CURVE('',#70,#70,#60,.T.);
#84=EDGE_CURVE('',#70,#61,#28,.T.);
#85=ORIENTED_EDGE('',*,*,#71,.T.);
#86=ORIENTED_EDGE('',*,*,#72,.F.);
#87=ORIENTED_EDGE('',*,*,#73,.T.);
#88=ORIENTED_EDGE('',*,*,#74,.F.);
#89=ORIENTED_EDGE('',*,*,#75,.F.);
#90=ORIENTED_EDGE('',*,*,#73,.F.);
#91=ORIENTED_EDGE('',*,*,#76,.F.);
#92=ORIENTED_EDGE('',*,*,#77,.T.);
#93=ORIENTED_EDGE('',*,*,#78,.T.);
#94=ORIENTED_EDGE('',*,*,#77,.F.);
#95=ORIENTED_EDGE('',*,*,#78,.F.);
#96=ORIENTED_EDGE('',*,*,#72,.T.);
#97=ORIENTED_EDGE('',*,*,#79,.F.);
#98=ORIENTED_EDGE('',*,*,#80,.T.);
#99=ORIENTED_EDGE('',*,*,#81,.F.);
#100=ORIENTED_EDGE('',*,*,#82,.F.);
#101=ORIENTED_EDGE('',*,*,#80,.F.);
#102=ORIENTED_EDGE('',*,*,#74,.T.);
#103=ORIENTED_EDGE('',*,*,#75,.T.);
#104=ORIENTED_EDGE('',*,*,#83,.F.);
#105=ORIENTED_EDGE('',*,*,#84,.T.);
#106=ORIENTED_EDGE('',*,*,#71,.F.);
#107=ORIENTED_EDGE('',*,*,#84,.F.);
#108=ORIENTED_EDGE('',*,*,#81,.T.);
#109=ORIENTED_EDGE('',*,*,#82,.T.);
#110=ORIENTED_EDGE('',*,*,#79,.T.);
#111=ORIENTED_EDGE('',*,*,#83,.T.);
#112=ORIENTED_EDGE('',*,*,#76,.T.);
#113=PLANE('',#137);
#114=PLANE('',#144);
#115=PLANE('',#148);
#116=ADVANCED_FACE('',(#37),#113,.F.);
#117=ADVANCED_FACE('',(#38),#33,.F.);
#118=ADVANCED_FACE('',(#39),#34,.F.);
#119=ADVANCED_FACE('',(#40,#15),#114,.T.);
#120=ADVANCED_FACE('',(#41,#16),#35,.F.);
#121=ADVANCED_FACE('',(#42,#17,#18),#36,.T.);
#122=ADVANCED_FACE('',(#43,#19),#115,.T.);
#123=CLOSED_SHELL('',(#116,#117,#118,#119,#120,#121,#122));
#124=DERIVED_UNIT_ELEMENT(#126,1.);
#125=DERIVED_UNIT_ELEMENT(#333,-3.);
#126=(
MASS_UNIT()
NAMED_UNIT(*)
SI_UNIT(.KILO.,.GRAM.)
);
#127=DERIVED_UNIT((#124,#125));
#128=MEASURE_REPRESENTATION_ITEM('density measure',
POSITIVE_RATIO_MEASURE(7850.),#127);
#129=PROPERTY_DEFINITION_REPRESENTATION(#134,#131);
#130=PROPERTY_DEFINITION_REPRESENTATION(#135,#132);
#131=REPRESENTATION('material name',(#133),#330);
#132=REPRESENTATION('density',(#128),#330);
#133=DESCRIPTIVE_REPRESENTATION_ITEM('Steel','Steel');
#134=PROPERTY_DEFINITION('material property','material name',#340);
#135=PROPERTY_DEFINITION('material property','density of part',#340);
#136=AXIS2_PLACEMENT_3D('',#179,#149,#150);
#137=AXIS2_PLACEMENT_3D('',#180,#151,#152);
#138=AXIS2_PLACEMENT_3D('',#182,#153,#154);
#139=AXIS2_PLACEMENT_3D('',#183,#155,#156);
#140=AXIS2_PLACEMENT_3D('',#185,#157,#158);
#141=AXIS2_PLACEMENT_3D('',#225,#160,#161);
#142=AXIS2_PLACEMENT_3D('',#227,#162,#163);
#143=AXIS2_PLACEMENT_3D('',#230,#165,#166);
#144=AXIS2_PLACEMENT_3D('',#231,#167,#168);
#145=AXIS2_PLACEMENT_3D('',#232,#169,#170);
#146=AXIS2_PLACEMENT_3D('',#323,#172,#173);
#147=AXIS2_PLACEMENT_3D('',#325,#174,#175);
#148=AXIS2_PLACEMENT_3D('',#327,#177,#178);
#149=DIRECTION('axis',(0.,0.,1.));
#150=DIRECTION('refdir',(1.,0.,0.));
#151=DIRECTION('center_axis',(0.,1.,0.));
#152=DIRECTION('ref_axis',(1.,0.,0.));
#153=DIRECTION('center_axis',(0.,-1.,0.));
#154=DIRECTION('ref_axis',(1.,0.,0.));
#155=DIRECTION('center_axis',(0.,-1.,0.));
#156=DIRECTION('ref_axis',(0.,0.,1.));
#157=DIRECTION('center_axis',(0.,-1.,0.));
#158=DIRECTION('ref_axis',(0.,0.,1.));
#159=DIRECTION('',(0.,-1.,0.));
#160=DIRECTION('center_axis',(0.,-1.,0.));
#161=DIRECTION('ref_axis',(-1.,0.,0.));
#162=DIRECTION('center_axis',(0.,-1.,0.));
#163=DIRECTION('ref_axis',(-1.,0.,0.));
#164=DIRECTION('',(0.,-1.,0.));
#165=DIRECTION('center_axis',(0.,-1.,0.));
#166=DIRECTION('ref_axis',(-1.,0.,0.));
#167=DIRECTION('center_axis',(0.,1.,0.));
#168=DIRECTION('ref_axis',(-1.,0.,0.));
#169=DIRECTION('center_axis',(0.,0.,1.));
#170=DIRECTION('ref_axis',(1.,0.,0.));
#171=DIRECTION('',(0.,0.,1.));
#172=DIRECTION('center_axis',(0.,1.,0.));
#173=DIRECTION('ref_axis',(1.,0.,0.));
#174=DIRECTION('center_axis',(0.,1.,0.));
#175=DIRECTION('ref_axis',(1.,0.,0.));
#176=DIRECTION('',(0.,-1.,0.));
#177=DIRECTION('center_axis',(0.,1.,0.));
#178=DIRECTION('ref_axis',(1.,0.,0.));
#179=CARTESIAN_POINT('',(0.,0.,0.));
#180=CARTESIAN_POINT('Origin',(0.,-24.6,0.));
#181=CARTESIAN_POINT('',(-4.,-24.6,0.));
#182=CARTESIAN_POINT('Origin',(0.,-24.6,0.));
#183=CARTESIAN_POINT('Origin',(0.,30.204,0.));
#184=CARTESIAN_POINT('',(1.54856587752183E-16,33.,-1.2645));
#185=CARTESIAN_POINT('Origin',(0.,33.,0.));
#186=CARTESIAN_POINT('',(1.815117024347E-16,30.,-1.2645));
#187=CARTESIAN_POINT('',(1.54856587752183E-16,30.204,-1.2645));
#188=CARTESIAN_POINT('',(1.2645,29.7204852048853,-1.38777878078145E-16));
#189=CARTESIAN_POINT('Ctrl Pts',(1.2645,29.7204852048853,-6.93889390390723E-17));
#190=CARTESIAN_POINT('Ctrl Pts',(1.2645,29.7204852048853,-0.161087077729466));
#191=CARTESIAN_POINT('Ctrl Pts',(1.23189284756703,29.7363093212172,-0.331284598838496));
#192=CARTESIAN_POINT('Ctrl Pts',(1.10228460279987,29.7910422715627,-0.642089240033585));
#193=CARTESIAN_POINT('Ctrl Pts',(1.00536362353961,29.8289258674598,-0.782909426081169));
#194=CARTESIAN_POINT('Ctrl Pts',(0.783050789409593,29.898339964461,-1.00522226021119));
#195=CARTESIAN_POINT('Ctrl Pts',(0.642178169455917,29.9346964254845,-1.10224981486569));
#196=CARTESIAN_POINT('Ctrl Pts',(0.331164876802542,29.985827479906,-1.2319404760704));
#197=CARTESIAN_POINT('Ctrl Pts',(0.160882345198149,30.,-1.2645));
#198=CARTESIAN_POINT('Ctrl Pts',(2.42861286636753E-16,30.,-1.2645));
#199=CARTESIAN_POINT('Ctrl Pts',(1.73472347597681E-16,30.,-1.2645));
#200=CARTESIAN_POINT('Ctrl Pts',(-0.160882345198148,30.,-1.2645));
#201=CARTESIAN_POINT('Ctrl Pts',(-0.331164876802543,29.985827479906,-1.2319404760704));
#202=CARTESIAN_POINT('Ctrl Pts',(-0.642178169455917,29.9346964254845,-1.10224981486569));
#203=CARTESIAN_POINT('Ctrl Pts',(-0.783050789409592,29.898339964461,-1.00522226021119));
#204=CARTESIAN_POINT('Ctrl Pts',(-1.00536362353961,29.8289258674598,-0.78290942608117));
#205=CARTESIAN_POINT('Ctrl Pts',(-1.10228460279987,29.7910422715627,-0.642089240033586));
#206=CARTESIAN_POINT('Ctrl Pts',(-1.23189284756703,29.7363093212172,-0.331284598838496));
#207=CARTESIAN_POINT('Ctrl Pts',(-1.2645,29.7204852048853,-0.161087077729466));
#208=CARTESIAN_POINT('Ctrl Pts',(-1.2645,29.7204852048853,0.161087077729465));
#209=CARTESIAN_POINT('Ctrl Pts',(-1.23189284756703,29.7363093212172,0.331284598838495));
#210=CARTESIAN_POINT('Ctrl Pts',(-1.10228460279987,29.7910422715627,0.642089240033584));
#211=CARTESIAN_POINT('Ctrl Pts',(-1.00536362353961,29.8289258674598,0.782909426081169));
#212=CARTESIAN_POINT('Ctrl Pts',(-0.783050789409593,29.898339964461,1.00522226021119));
#213=CARTESIAN_POINT('Ctrl Pts',(-0.642178169455918,29.9346964254845,1.10224981486569));
#214=CARTESIAN_POINT('Ctrl Pts',(-0.331164876802544,29.985827479906,1.2319404760704));
#215=CARTESIAN_POINT('Ctrl Pts',(-0.160882345198149,30.,1.2645));
#216=CARTESIAN_POINT('Ctrl Pts',(0.160882345198148,30.,1.2645));
#217=CARTESIAN_POINT('Ctrl Pts',(0.331164876802542,29.985827479906,1.2319404760704));
#218=CARTESIAN_POINT('Ctrl Pts',(0.642178169455916,29.9346964254845,1.10224981486569));
#219=CARTESIAN_POINT('Ctrl Pts',(0.783050789409592,29.898339964461,1.00522226021119));
#220=CARTESIAN_POINT('Ctrl Pts',(1.00536362353961,29.8289258674598,0.78290942608117));
#221=CARTESIAN_POINT('Ctrl Pts',(1.10228460279987,29.7910422715627,0.642089240033586));
#222=CARTESIAN_POINT('Ctrl Pts',(1.23189284756703,29.7363093212172,0.331284598838497));
#223=CARTESIAN_POINT('Ctrl Pts',(1.2645,29.7204852048853,0.161087077729466));
#224=CARTESIAN_POINT('Ctrl Pts',(1.2645,29.7204852048853,3.46944695195361E-17));
#225=CARTESIAN_POINT('Origin',(0.,35.,0.));
#226=CARTESIAN_POINT('',(2.,35.,-2.44929359829471E-16));
#227=CARTESIAN_POINT('Origin',(0.,35.,0.));
#228=CARTESIAN_POINT('',(2.,33.,-2.44929359829471E-16));
#229=CARTESIAN_POINT('',(2.,35.,2.44929359829471E-16));
#230=CARTESIAN_POINT('Origin',(0.,33.,0.));
#231=CARTESIAN_POINT('Origin',(0.,33.,0.));
#232=CARTESIAN_POINT('Origin',(0.,27.,0.));
#233=CARTESIAN_POINT('',(-3.,27.,-2.64575131106459));
#234=CARTESIAN_POINT('Ctrl Pts',(3.,27.,-2.64575131106459));
#235=CARTESIAN_POINT('Ctrl Pts',(3.,27.2014467721507,-2.64575131106459));
#236=CARTESIAN_POINT('Ctrl Pts',(2.97950772116504,27.403635841556,-2.66946656583193));
#237=CARTESIAN_POINT('Ctrl Pts',(2.89904864856832,27.7974365991683,-2.75663470560297));
#238=CARTESIAN_POINT('Ctrl Pts',(2.8391288325358,27.9891429794725,-2.81970270384708));
#239=CARTESIAN_POINT('Ctrl Pts',(2.607687447172,28.5349908017058,-3.0406356980255));
#240=CARTESIAN_POINT('Ctrl Pts',(2.3818594275205,28.8607812595988,-3.22818652826944));
#241=CARTESIAN_POINT('Ctrl Pts',(1.86626118858042,29.3763794985389,-3.55071552231379));
#242=CARTESIAN_POINT('Ctrl Pts',(1.53982355552793,29.6054860088286,-3.71172434841458));
#243=CARTESIAN_POINT('Ctrl Pts',(0.804292530598247,29.9176580029427,-3.93713960479867));
#244=CARTESIAN_POINT('Ctrl Pts',(0.394419468257353,30.,-4.));
#245=CARTESIAN_POINT('Ctrl Pts',(-0.394419468257353,30.,-4.));
#246=CARTESIAN_POINT('Ctrl Pts',(-0.804292530598247,29.9176580029427,-3.93713960479867));
#247=CARTESIAN_POINT('Ctrl Pts',(-1.53982355552793,29.6054860088286,-3.71172434841458));
#248=CARTESIAN_POINT('Ctrl Pts',(-1.86626118858042,29.3763794985389,-3.55071552231379));
#249=CARTESIAN_POINT('Ctrl Pts',(-2.3818594275205,28.8607812595988,-3.22818652826944));
#250=CARTESIAN_POINT('Ctrl Pts',(-2.607687447172,28.5349908017058,-3.0406356980255));
#251=CARTESIAN_POINT('Ctrl Pts',(-2.8391288325358,27.9891429794725,-2.81970270384708));
#252=CARTESIAN_POINT('Ctrl Pts',(-2.89904864856832,27.7974365991683,-2.75663470560297));
#253=CARTESIAN_POINT('Ctrl Pts',(-2.97950772116504,27.403635841556,-2.66946656583193));
#254=CARTESIAN_POINT('Ctrl Pts',(-3.,27.2014467721507,-2.64575131106459));
#255=CARTESIAN_POINT('Ctrl Pts',(-3.,26.7985532278493,-2.64575131106459));
#256=CARTESIAN_POINT('Ctrl Pts',(-2.97950772116504,26.596364158444,-2.66946656583193));
#257=CARTESIAN_POINT('Ctrl Pts',(-2.89904864856832,26.2025634008317,-2.75663470560297));
#258=CARTESIAN_POINT('Ctrl Pts',(-2.8391288325358,26.0108570205275,-2.81970270384708));
#259=CARTESIAN_POINT('Ctrl Pts',(-2.607687447172,25.4650091982942,-3.0406356980255));
#260=CARTESIAN_POINT('Ctrl Pts',(-2.3818594275205,25.1392187404012,-3.22818652826944));
#261=CARTESIAN_POINT('Ctrl Pts',(-1.86626118858042,24.6236205014611,-3.55071552231379));
#262=CARTESIAN_POINT('Ctrl Pts',(-1.53982355552793,24.3945139911714,-3.71172434841458));
#263=CARTESIAN_POINT('Ctrl Pts',(-0.804292530598248,24.0823419970573,-3.93713960479867));
#264=CARTESIAN_POINT('Ctrl Pts',(-0.394419468257354,24.,-4.));
#265=CARTESIAN_POINT('Ctrl Pts',(0.394419468257353,24.,-4.));
#266=CARTESIAN_POINT('Ctrl Pts',(0.804292530598244,24.0823419970573,-3.93713960479867));
#267=CARTESIAN_POINT('Ctrl Pts',(1.53982355552792,24.3945139911714,-3.71172434841458));
#268=CARTESIAN_POINT('Ctrl Pts',(1.86626118858042,24.6236205014611,-3.55071552231379));
#269=CARTESIAN_POINT('Ctrl Pts',(2.3818594275205,25.1392187404012,-3.22818652826944));
#270=CARTESIAN_POINT('Ctrl Pts',(2.607687447172,25.4650091982942,-3.0406356980255));
#271=CARTESIAN_POINT('Ctrl Pts',(2.8391288325358,26.0108570205275,-2.81970270384708));
#272=CARTESIAN_POINT('Ctrl Pts',(2.89904864856832,26.2025634008317,-2.75663470560297));
#273=CARTESIAN_POINT('Ctrl Pts',(2.97950772116504,26.596364158444,-2.66946656583193));
#274=CARTESIAN_POINT('Ctrl Pts',(3.,26.7985532278493,-2.64575131106459));
#275=CARTESIAN_POINT('Ctrl Pts',(3.,27.,-2.64575131106459));
#276=CARTESIAN_POINT('',(-3.,27.,2.64575131106459));
#277=CARTESIAN_POINT('',(-3.,27.,0.));
#278=CARTESIAN_POINT('',(3.,27.,2.64575131106459));
#279=CARTESIAN_POINT('Ctrl Pts',(3.,27.,2.64575131106459));
#280=CARTESIAN_POINT('Ctrl Pts',(3.,26.7985532278493,2.64575131106459));
#281=CARTESIAN_POINT('Ctrl Pts',(2.97950772116504,26.596364158444,2.66946656583193));
#282=CARTESIAN_POINT('Ctrl Pts',(2.89904864856832,26.2025634008317,2.75663470560297));
#283=CARTESIAN_POINT('Ctrl Pts',(2.8391288325358,26.0108570205275,2.81970270384708));
#284=CARTESIAN_POINT('Ctrl Pts',(2.607687447172,25.4650091982942,3.0406356980255));
#285=CARTESIAN_POINT('Ctrl Pts',(2.3818594275205,25.1392187404012,3.22818652826944));
#286=CARTESIAN_POINT('Ctrl Pts',(1.86626118858042,24.6236205014611,3.55071552231379));
#287=CARTESIAN_POINT('Ctrl Pts',(1.53982355552792,24.3945139911714,3.71172434841458));
#288=CARTESIAN_POINT('Ctrl Pts',(0.804292530598242,24.0823419970573,3.93713960479867));
#289=CARTESIAN_POINT('Ctrl Pts',(0.394419468257353,24.,4.));
#290=CARTESIAN_POINT('Ctrl Pts',(-0.394419468257354,24.,4.));
#291=CARTESIAN_POINT('Ctrl Pts',(-0.804292530598248,24.0823419970573,3.93713960479867));
#292=CARTESIAN_POINT('Ctrl Pts',(-1.53982355552793,24.3945139911714,3.71172434841458));
#293=CARTESIAN_POINT('Ctrl Pts',(-1.86626118858042,24.6236205014611,3.55071552231379));
#294=CARTESIAN_POINT('Ctrl Pts',(-2.3818594275205,25.1392187404012,3.22818652826944));
#295=CARTESIAN_POINT('Ctrl Pts',(-2.607687447172,25.4650091982942,3.0406356980255));
#296=CARTESIAN_POINT('Ctrl Pts',(-2.8391288325358,26.0108570205275,2.81970270384708));
#297=CARTESIAN_POINT('Ctrl Pts',(-2.89904864856832,26.2025634008317,2.75663470560297));
#298=CARTESIAN_POINT('Ctrl Pts',(-2.97950772116504,26.596364158444,2.66946656583193));
#299=CARTESIAN_POINT('Ctrl Pts',(-3.,26.7985532278493,2.64575131106459));
#300=CARTESIAN_POINT('Ctrl Pts',(-3.,27.,2.64575131106459));
#301=CARTESIAN_POINT('Ctrl Pts',(-3.,27.,2.64575131106459));
#302=CARTESIAN_POINT('Ctrl Pts',(-3.,27.2014467721507,2.64575131106459));
#303=CARTESIAN_POINT('Ctrl Pts',(-2.97950772116504,27.403635841556,2.66946656583193));
#304=CARTESIAN_POINT('Ctrl Pts',(-2.89904864856832,27.7974365991683,2.75663470560297));
#305=CARTESIAN_POINT('Ctrl Pts',(-2.8391288325358,27.9891429794725,2.81970270384708));
#306=CARTESIAN_POINT('Ctrl Pts',(-2.60768744717201,28.5349908017058,3.0406356980255));
#307=CARTESIAN_POINT('Ctrl Pts',(-2.3818594275205,28.8607812595988,3.22818652826944));
#308=CARTESIAN_POINT('Ctrl Pts',(-1.86626118858042,29.3763794985389,3.55071552231379));
#309=CARTESIAN_POINT('Ctrl Pts',(-1.53982355552793,29.6054860088286,3.71172434841458));
#310=CARTESIAN_POINT('Ctrl Pts',(-0.804292530598247,29.9176580029427,3.93713960479867));
#311=CARTESIAN_POINT('Ctrl Pts',(-0.394419468257353,30.,4.));
#312=CARTESIAN_POINT('Ctrl Pts',(0.394419468257353,30.,4.));
#313=CARTESIAN_POINT('Ctrl Pts',(0.804292530598247,29.9176580029427,3.93713960479867));
#314=CARTESIAN_POINT('Ctrl Pts',(1.53982355552793,29.6054860088286,3.71172434841458));
#315=CARTESIAN_POINT('Ctrl Pts',(1.86626118858042,29.3763794985389,3.55071552231379));
#316=CARTESIAN_POINT('Ctrl Pts',(2.3818594275205,28.8607812595988,3.22818652826944));
#317=CARTESIAN_POINT('Ctrl Pts',(2.607687447172,28.5349908017058,3.0406356980255));
#318=CARTESIAN_POINT('Ctrl Pts',(2.8391288325358,27.9891429794725,2.81970270384708));
#319=CARTESIAN_POINT('Ctrl Pts',(2.89904864856832,27.7974365991683,2.75663470560297));
#320=CARTESIAN_POINT('Ctrl Pts',(2.97950772116504,27.4036358415559,2.66946656583193));
#321=CARTESIAN_POINT('Ctrl Pts',(3.,27.2014467721507,2.64575131106459));
#322=CARTESIAN_POINT('Ctrl Pts',(3.,27.,2.64575131106459));
#323=CARTESIAN_POINT('Origin',(0.,0.,0.));
#324=CARTESIAN_POINT('',(-4.,35.,4.89858719658941E-16));
#325=CARTESIAN_POINT('Origin',(0.,35.,0.));
#326=CARTESIAN_POINT('',(-4.,0.,4.89858719658941E-16));
#327=CARTESIAN_POINT('Origin',(0.,35.,0.));
#328=UNCERTAINTY_MEASURE_WITH_UNIT(LENGTH_MEASURE(0.01),#332,
'DISTANCE_ACCURACY_VALUE',
'Maximum model space distance between geometric entities at asserted c
onnectivities');
#329=UNCERTAINTY_MEASURE_WITH_UNIT(LENGTH_MEASURE(0.01),#332,
'DISTANCE_ACCURACY_VALUE',
'Maximum model space distance between geometric entities at asserted c
onnectivities');
#330=(
GEOMETRIC_REPRESENTATION_CONTEXT(3)
GLOBAL_UNCERTAINTY_ASSIGNED_CONTEXT((#328))
GLOBAL_UNIT_ASSIGNED_CONTEXT((#332,#334,#335))
REPRESENTATION_CONTEXT('','3D')
);
#331=(
GEOMETRIC_REPRESENTATION_CONTEXT(3)
GLOBAL_UNCERTAINTY_ASSIGNED_CONTEXT((#329))
GLOBAL_UNIT_ASSIGNED_CONTEXT((#332,#334,#335))
REPRESENTATION_CONTEXT('','3D')
);
#332=(
LENGTH_UNIT()
NAMED_UNIT(*)
SI_UNIT(.MILLI.,.METRE.)
);
#333=(
LENGTH_UNIT()
NAMED_UNIT(*)
SI_UNIT($,.METRE.)
);
#334=(
NAMED_UNIT(*)
PLANE_ANGLE_UNIT()
SI_UNIT($,.RADIAN.)
);
#335=(
NAMED_UNIT(*)
SI_UNIT($,.STERADIAN.)
SOLID_ANGLE_UNIT()
);
#336=SHAPE_DEFINITION_REPRESENTATION(#337,#338);
#337=PRODUCT_DEFINITION_SHAPE('',$,#340);
#338=SHAPE_REPRESENTATION('',(#136),#330);
#339=PRODUCT_DEFINITION_CONTEXT('part definition',#344,'design');
#340=PRODUCT_DEFINITION('Encoder Attachment','Encoder Attachment v6',#341,
#339);
#341=PRODUCT_DEFINITION_FORMATION('',$,#346);
#342=PRODUCT_RELATED_PRODUCT_CATEGORY('Encoder Attachment v6',
'Encoder Attachment v6',(#346));
#343=APPLICATION_PROTOCOL_DEFINITION('international standard',
'automotive_design',2009,#344);
#344=APPLICATION_CONTEXT(
'Core Data for Automotive Mechanical Design Process');
#345=PRODUCT_CONTEXT('part definition',#344,'mechanical');
#346=PRODUCT('Encoder Attachment','Encoder Attachment v6',$,(#345));
#347=PRESENTATION_STYLE_ASSIGNMENT((#349));
#348=PRESENTATION_STYLE_ASSIGNMENT((#350));
#349=SURFACE_STYLE_USAGE(.BOTH.,#351);
#350=SURFACE_STYLE_USAGE(.BOTH.,#352);
#351=SURFACE_SIDE_STYLE('',(#353));
#352=SURFACE_SIDE_STYLE('',(#354));
#353=SURFACE_STYLE_FILL_AREA(#355);
#354=SURFACE_STYLE_FILL_AREA(#356);
#355=FILL_AREA_STYLE('Steel - Satin',(#357));
#356=FILL_AREA_STYLE('Aluminum - Satin',(#358));
#357=FILL_AREA_STYLE_COLOUR('Steel - Satin',#359);
#358=FILL_AREA_STYLE_COLOUR('Aluminum - Satin',#360);
#359=COLOUR_RGB('Steel - Satin',0.627450980392157,0.627450980392157,0.627450980392157);
#360=COLOUR_RGB('Aluminum - Satin',0.96078431372549,0.96078431372549,0.964705882352941);
ENDSEC;
END-ISO-10303-21;
