ISO-10303-21;
HEADER;
/* Generated by software containing ST-Developer
 * from STEP Tools, Inc. (www.steptools.com) 
 */

FILE_DESCRIPTION(
/* description */ (''),
/* implementation_level */ '2;1');

FILE_NAME(
/* name */ 'd1055dda-4a47-42a4-98d8-2a2079d64315.stp',
/* time_stamp */ '2023-05-24T01:10:38Z',
/* author */ (''),
/* organization */ (''),
/* preprocessor_version */ 'ST-DEVELOPER v19.2',
/* originating_system */ 'Autodesk Translation Framework v12.6.0.85',
/* authorisation */ '');

FILE_SCHEMA (('AUTOMOTIVE_DESIGN { 1 0 10303 214 3 1 1 }'));
ENDSEC;

DATA;
#10=MECHANICAL_DESIGN_GEOMETRIC_PRESENTATION_REPRESENTATION('',(#42,#43,
#44),#506);
#11=ITEM_DEFINED_TRANSFORMATION($,$,#228,#255);
#12=ITEM_DEFINED_TRANSFORMATION($,$,#242,#256);
#13=(
REPRESENTATION_RELATIONSHIP($,$,#520,#519)
REPRESENTATION_RELATIONSHIP_WITH_TRANSFORMATION(#11)
SHAPE_REPRESENTATION_RELATIONSHIP()
);
#14=(
REPRESENTATION_RELATIONSHIP($,$,#521,#519)
REPRESENTATION_RELATIONSHIP_WITH_TRANSFORMATION(#12)
SHAPE_REPRESENTATION_RELATIONSHIP()
);
#15=CONTEXT_DEPENDENT_SHAPE_REPRESENTATION(#13,#517);
#16=CONTEXT_DEPENDENT_SHAPE_REPRESENTATION(#14,#518);
#17=NEXT_ASSEMBLY_USAGE_OCCURRENCE('Eye Lever v6:1','Eye Lever v6:1',
'Eye Lever v6:1',#523,#524,'Eye Lever v6:1');
#18=NEXT_ASSEMBLY_USAGE_OCCURRENCE('Encoder Attachment v6:1',
'Encoder Attachment v6:1','Encoder Attachment v6:1',#523,#525,
'Encoder Attachment v6:1');
#19=B_SPLINE_CURVE_WITH_KNOTS('',3,(#358,#359,#360,#361,#362,#363,#364,
#365,#366,#367),.UNSPECIFIED.,.F.,.F.,(4,2,2,2,4),(0.,0.0483261233188397,
0.0966522466376793,0.144916950197124,0.193181653756568),.UNSPECIFIED.);
#20=B_SPLINE_CURVE_WITH_KNOTS('',3,(#368,#369,#370,#371,#372,#373,#374,
#375,#376,#377,#378,#379,#380,#381,#382,#383,#384,#385,#386,#387,#388,#389,
#390,#391,#392,#393),.UNSPECIFIED.,.F.,.F.,(4,2,2,2,2,2,2,2,2,2,2,2,4),
(0.193181653756568,0.241446357316013,0.289711060875457,0.338037184194297,
0.386363307513137,0.434689430831976,0.483015554150816,0.53128025771026,
0.579544961269705,0.627809664829149,0.676074368388594,0.724400491707434,
0.772726615026273),.UNSPECIFIED.);
#21=B_SPLINE_CURVE_WITH_KNOTS('',3,(#403,#404,#405,#406,#407,#408,#409,
#410,#411,#412,#413,#414,#415,#416,#417,#418,#419,#420,#421,#422,#423,#424,
#425,#426,#427,#428,#429,#430,#431,#432,#433,#434,#435,#436,#437,#438,#439,
#440,#441,#442,#443,#444),.UNSPECIFIED.,.T.,.F.,(4,2,2,2,2,2,2,2,2,2,2,
2,2,2,2,2,2,2,2,2,4),(0.,0.0604340316452085,0.120868063290417,0.241736126580834,
0.36006196705804,0.478387807535246,0.596713648012452,0.715039488489658,
0.835907551780075,0.896341583425283,0.956775615070492,1.0172096467157,1.07764367836091,
1.19851174165133,1.31683758212853,1.43516342260574,1.55348926308294,1.67181510356015,
1.79268316685057,1.85311719849578,1.91355123014098),.UNSPECIFIED.);
#22=B_SPLINE_CURVE_WITH_KNOTS('',3,(#448,#449,#450,#451,#452,#453,#454,
#455,#456,#457,#458,#459,#460,#461,#462,#463,#464,#465,#466,#467,#468,#469),
 .UNSPECIFIED.,.F.,.F.,(4,2,2,2,2,2,2,2,2,2,4),(0.,0.0604340316452086,0.120868063290417,
0.241736126580834,0.36006196705804,0.478387807535246,0.596713648012452,
0.715039488489658,0.835907551780075,0.896341583425284,0.956775615070492),
 .UNSPECIFIED.);
#23=B_SPLINE_CURVE_WITH_KNOTS('',3,(#470,#471,#472,#473,#474,#475,#476,
#477,#478,#479,#480,#481,#482,#483,#484,#485,#486,#487,#488,#489,#490,#491),
 .UNSPECIFIED.,.F.,.F.,(4,2,2,2,2,2,2,2,2,2,4),(0.956775615070492,1.0172096467157,
1.07764367836091,1.19851174165133,1.31683758212853,1.43516342260574,1.55348926308294,
1.67181510356015,1.79268316685057,1.85311719849578,1.91355123014098),
 .UNSPECIFIED.);
#24=DERIVED_UNIT_ELEMENT(#26,1.);
#25=DERIVED_UNIT_ELEMENT(#508,-3.);
#26=(
MASS_UNIT()
NAMED_UNIT(*)
SI_UNIT(.KILO.,.GRAM.)
);
#27=DERIVED_UNIT((#24,#25));
#28=MEASURE_REPRESENTATION_ITEM('density measure',
POSITIVE_RATIO_MEASURE(7850.),#27);
#29=PROPERTY_DEFINITION_REPRESENTATION(#34,#31);
#30=PROPERTY_DEFINITION_REPRESENTATION(#35,#32);
#31=REPRESENTATION('material name',(#33),#505);
#32=REPRESENTATION('density',(#28),#505);
#33=DESCRIPTIVE_REPRESENTATION_ITEM('Steel','Steel');
#34=PROPERTY_DEFINITION('material property','material name',#525);
#35=PROPERTY_DEFINITION('material property','density of part',#525);
#36=SHAPE_REPRESENTATION_RELATIONSHIP('SRR','None',#520,#38);
#37=SHAPE_REPRESENTATION_RELATIONSHIP('SRR','None',#521,#39);
#38=ADVANCED_BREP_SHAPE_REPRESENTATION('',(#40),#504);
#39=ADVANCED_BREP_SHAPE_REPRESENTATION('',(#41),#505);
#40=MANIFOLD_SOLID_BREP('Body1',#225);
#41=MANIFOLD_SOLID_BREP('Body1',#226);
#42=STYLED_ITEM('',(#539),#217);
#43=STYLED_ITEM('',(#538),#40);
#44=STYLED_ITEM('',(#538),#41);
#45=LINE('',#336,#52);
#46=LINE('',#345,#53);
#47=LINE('',#347,#54);
#48=LINE('',#356,#55);
#49=LINE('',#398,#56);
#50=LINE('',#446,#57);
#51=LINE('',#495,#58);
#52=VECTOR('',#273,1.);
#53=VECTOR('',#286,7.5);
#54=VECTOR('',#289,3.);
#55=VECTOR('',#300,1.2645);
#56=VECTOR('',#305,2.);
#57=VECTOR('',#312,3.);
#58=VECTOR('',#317,4.);
#59=CYLINDRICAL_SURFACE('',#234,1.);
#60=CYLINDRICAL_SURFACE('',#240,7.5);
#61=CYLINDRICAL_SURFACE('',#241,3.);
#62=CYLINDRICAL_SURFACE('',#245,1.2645);
#63=CYLINDRICAL_SURFACE('',#247,2.);
#64=CYLINDRICAL_SURFACE('',#251,3.);
#65=CYLINDRICAL_SURFACE('',#252,4.);
#66=FACE_BOUND('',#88,.T.);
#67=FACE_BOUND('',#93,.T.);
#68=FACE_BOUND('',#100,.T.);
#69=FACE_BOUND('',#102,.T.);
#70=FACE_BOUND('',#104,.T.);
#71=FACE_BOUND('',#105,.T.);
#72=FACE_BOUND('',#107,.T.);
#73=FACE_OUTER_BOUND('',#87,.T.);
#74=FACE_OUTER_BOUND('',#89,.T.);
#75=FACE_OUTER_BOUND('',#90,.T.);
#76=FACE_OUTER_BOUND('',#91,.T.);
#77=FACE_OUTER_BOUND('',#92,.T.);
#78=FACE_OUTER_BOUND('',#94,.T.);
#79=FACE_OUTER_BOUND('',#95,.T.);
#80=FACE_OUTER_BOUND('',#96,.T.);
#81=FACE_OUTER_BOUND('',#97,.T.);
#82=FACE_OUTER_BOUND('',#98,.T.);
#83=FACE_OUTER_BOUND('',#99,.T.);
#84=FACE_OUTER_BOUND('',#101,.T.);
#85=FACE_OUTER_BOUND('',#103,.T.);
#86=FACE_OUTER_BOUND('',#106,.T.);
#87=EDGE_LOOP('',(#158));
#88=EDGE_LOOP('',(#159));
#89=EDGE_LOOP('',(#160));
#90=EDGE_LOOP('',(#161,#162,#163,#164));
#91=EDGE_LOOP('',(#165));
#92=EDGE_LOOP('',(#166));
#93=EDGE_LOOP('',(#167));
#94=EDGE_LOOP('',(#168,#169,#170,#171));
#95=EDGE_LOOP('',(#172,#173,#174,#175));
#96=EDGE_LOOP('',(#176));
#97=EDGE_LOOP('',(#177,#178,#179,#180,#181));
#98=EDGE_LOOP('',(#182,#183,#184,#185));
#99=EDGE_LOOP('',(#186));
#100=EDGE_LOOP('',(#187));
#101=EDGE_LOOP('',(#188,#189,#190,#191,#192));
#102=EDGE_LOOP('',(#193,#194));
#103=EDGE_LOOP('',(#195,#196,#197,#198));
#104=EDGE_LOOP('',(#199,#200));
#105=EDGE_LOOP('',(#201));
#106=EDGE_LOOP('',(#202));
#107=EDGE_LOOP('',(#203));
#108=CIRCLE('',#230,3.);
#109=CIRCLE('',#231,1.);
#110=CIRCLE('',#233,7.5);
#111=CIRCLE('',#235,1.);
#112=CIRCLE('',#238,7.5);
#113=CIRCLE('',#239,3.);
#114=CIRCLE('',#244,4.);
#115=CIRCLE('',#246,1.2645);
#116=CIRCLE('',#248,2.);
#117=CIRCLE('',#249,2.);
#118=CIRCLE('',#253,4.);
#119=VERTEX_POINT('',#327);
#120=VERTEX_POINT('',#329);
#121=VERTEX_POINT('',#332);
#122=VERTEX_POINT('',#335);
#123=VERTEX_POINT('',#340);
#124=VERTEX_POINT('',#342);
#125=VERTEX_POINT('',#350);
#126=VERTEX_POINT('',#353);
#127=VERTEX_POINT('',#355);
#128=VERTEX_POINT('',#357);
#129=VERTEX_POINT('',#395);
#130=VERTEX_POINT('',#397);
#131=VERTEX_POINT('',#402);
#132=VERTEX_POINT('',#445);
#133=VERTEX_POINT('',#447);
#134=VERTEX_POINT('',#493);
#135=EDGE_CURVE('',#119,#119,#108,.T.);
#136=EDGE_CURVE('',#120,#120,#109,.T.);
#137=EDGE_CURVE('',#121,#121,#110,.T.);
#138=EDGE_CURVE('',#120,#122,#45,.T.);
#139=EDGE_CURVE('',#122,#122,#111,.T.);
#140=EDGE_CURVE('',#123,#123,#112,.T.);
#141=EDGE_CURVE('',#124,#124,#113,.T.);
#142=EDGE_CURVE('',#121,#123,#46,.T.);
#143=EDGE_CURVE('',#119,#124,#47,.T.);
#144=EDGE_CURVE('',#125,#125,#114,.T.);
#145=EDGE_CURVE('',#126,#126,#115,.T.);
#146=EDGE_CURVE('',#126,#127,#48,.T.);
#147=EDGE_CURVE('',#128,#127,#19,.T.);
#148=EDGE_CURVE('',#127,#128,#20,.T.);
#149=EDGE_CURVE('',#129,#129,#116,.T.);
#150=EDGE_CURVE('',#129,#130,#49,.T.);
#151=EDGE_CURVE('',#130,#130,#117,.T.);
#152=EDGE_CURVE('',#131,#131,#21,.T.);
#153=EDGE_CURVE('',#131,#132,#50,.T.);
#154=EDGE_CURVE('',#133,#132,#22,.T.);
#155=EDGE_CURVE('',#132,#133,#23,.T.);
#156=EDGE_CURVE('',#134,#134,#118,.T.);
#157=EDGE_CURVE('',#134,#125,#51,.T.);
#158=ORIENTED_EDGE('',*,*,#135,.T.);
#159=ORIENTED_EDGE('',*,*,#136,.T.);
#160=ORIENTED_EDGE('',*,*,#137,.T.);
#161=ORIENTED_EDGE('',*,*,#136,.F.);
#162=ORIENTED_EDGE('',*,*,#138,.T.);
#163=ORIENTED_EDGE('',*,*,#139,.T.);
#164=ORIENTED_EDGE('',*,*,#138,.F.);
#165=ORIENTED_EDGE('',*,*,#139,.F.);
#166=ORIENTED_EDGE('',*,*,#140,.F.);
#167=ORIENTED_EDGE('',*,*,#141,.F.);
#168=ORIENTED_EDGE('',*,*,#137,.F.);
#169=ORIENTED_EDGE('',*,*,#142,.T.);
#170=ORIENTED_EDGE('',*,*,#140,.T.);
#171=ORIENTED_EDGE('',*,*,#142,.F.);
#172=ORIENTED_EDGE('',*,*,#135,.F.);
#173=ORIENTED_EDGE('',*,*,#143,.T.);
#174=ORIENTED_EDGE('',*,*,#141,.T.);
#175=ORIENTED_EDGE('',*,*,#143,.F.);
#176=ORIENTED_EDGE('',*,*,#144,.T.);
#177=ORIENTED_EDGE('',*,*,#145,.F.);
#178=ORIENTED_EDGE('',*,*,#146,.T.);
#179=ORIENTED_EDGE('',*,*,#147,.F.);
#180=ORIENTED_EDGE('',*,*,#148,.F.);
#181=ORIENTED_EDGE('',*,*,#146,.F.);
#182=ORIENTED_EDGE('',*,*,#149,.F.);
#183=ORIENTED_EDGE('',*,*,#150,.T.);
#184=ORIENTED_EDGE('',*,*,#151,.T.);
#185=ORIENTED_EDGE('',*,*,#150,.F.);
#186=ORIENTED_EDGE('',*,*,#151,.F.);
#187=ORIENTED_EDGE('',*,*,#145,.T.);
#188=ORIENTED_EDGE('',*,*,#152,.F.);
#189=ORIENTED_EDGE('',*,*,#153,.T.);
#190=ORIENTED_EDGE('',*,*,#154,.F.);
#191=ORIENTED_EDGE('',*,*,#155,.F.);
#192=ORIENTED_EDGE('',*,*,#153,.F.);
#193=ORIENTED_EDGE('',*,*,#147,.T.);
#194=ORIENTED_EDGE('',*,*,#148,.T.);
#195=ORIENTED_EDGE('',*,*,#156,.F.);
#196=ORIENTED_EDGE('',*,*,#157,.T.);
#197=ORIENTED_EDGE('',*,*,#144,.F.);
#198=ORIENTED_EDGE('',*,*,#157,.F.);
#199=ORIENTED_EDGE('',*,*,#154,.T.);
#200=ORIENTED_EDGE('',*,*,#155,.T.);
#201=ORIENTED_EDGE('',*,*,#152,.T.);
#202=ORIENTED_EDGE('',*,*,#156,.T.);
#203=ORIENTED_EDGE('',*,*,#149,.T.);
#204=PLANE('',#229);
#205=PLANE('',#232);
#206=PLANE('',#236);
#207=PLANE('',#237);
#208=PLANE('',#243);
#209=PLANE('',#250);
#210=PLANE('',#254);
#211=ADVANCED_FACE('',(#73,#66),#204,.T.);
#212=ADVANCED_FACE('',(#74),#205,.T.);
#213=ADVANCED_FACE('',(#75),#59,.F.);
#214=ADVANCED_FACE('',(#76),#206,.T.);
#215=ADVANCED_FACE('',(#77,#67),#207,.F.);
#216=ADVANCED_FACE('',(#78),#60,.T.);
#217=ADVANCED_FACE('',(#79),#61,.T.);
#218=ADVANCED_FACE('',(#80),#208,.F.);
#219=ADVANCED_FACE('',(#81),#62,.F.);
#220=ADVANCED_FACE('',(#82),#63,.F.);
#221=ADVANCED_FACE('',(#83,#68),#209,.T.);
#222=ADVANCED_FACE('',(#84,#69),#64,.F.);
#223=ADVANCED_FACE('',(#85,#70,#71),#65,.T.);
#224=ADVANCED_FACE('',(#86,#72),#210,.T.);
#225=CLOSED_SHELL('',(#211,#212,#213,#214,#215,#216,#217));
#226=CLOSED_SHELL('',(#218,#219,#220,#221,#222,#223,#224));
#227=AXIS2_PLACEMENT_3D('',#324,#257,#258);
#228=AXIS2_PLACEMENT_3D('',#325,#259,#260);
#229=AXIS2_PLACEMENT_3D('',#326,#261,#262);
#230=AXIS2_PLACEMENT_3D('',#328,#263,#264);
#231=AXIS2_PLACEMENT_3D('',#330,#265,#266);
#232=AXIS2_PLACEMENT_3D('',#331,#267,#268);
#233=AXIS2_PLACEMENT_3D('',#333,#269,#270);
#234=AXIS2_PLACEMENT_3D('',#334,#271,#272);
#235=AXIS2_PLACEMENT_3D('',#337,#274,#275);
#236=AXIS2_PLACEMENT_3D('',#338,#276,#277);
#237=AXIS2_PLACEMENT_3D('',#339,#278,#279);
#238=AXIS2_PLACEMENT_3D('',#341,#280,#281);
#239=AXIS2_PLACEMENT_3D('',#343,#282,#283);
#240=AXIS2_PLACEMENT_3D('',#344,#284,#285);
#241=AXIS2_PLACEMENT_3D('',#346,#287,#288);
#242=AXIS2_PLACEMENT_3D('',#348,#290,#291);
#243=AXIS2_PLACEMENT_3D('',#349,#292,#293);
#244=AXIS2_PLACEMENT_3D('',#351,#294,#295);
#245=AXIS2_PLACEMENT_3D('',#352,#296,#297);
#246=AXIS2_PLACEMENT_3D('',#354,#298,#299);
#247=AXIS2_PLACEMENT_3D('',#394,#301,#302);
#248=AXIS2_PLACEMENT_3D('',#396,#303,#304);
#249=AXIS2_PLACEMENT_3D('',#399,#306,#307);
#250=AXIS2_PLACEMENT_3D('',#400,#308,#309);
#251=AXIS2_PLACEMENT_3D('',#401,#310,#311);
#252=AXIS2_PLACEMENT_3D('',#492,#313,#314);
#253=AXIS2_PLACEMENT_3D('',#494,#315,#316);
#254=AXIS2_PLACEMENT_3D('',#496,#318,#319);
#255=AXIS2_PLACEMENT_3D('',#497,#320,#321);
#256=AXIS2_PLACEMENT_3D('',#498,#322,#323);
#257=DIRECTION('axis',(0.,0.,1.));
#258=DIRECTION('refdir',(1.,0.,0.));
#259=DIRECTION('axis',(0.,0.,1.));
#260=DIRECTION('refdir',(1.,0.,0.));
#261=DIRECTION('center_axis',(0.,1.,0.));
#262=DIRECTION('ref_axis',(1.,0.,0.));
#263=DIRECTION('center_axis',(0.,1.,0.));
#264=DIRECTION('ref_axis',(1.,0.,0.));
#265=DIRECTION('center_axis',(0.,-1.,0.));
#266=DIRECTION('ref_axis',(-1.,0.,0.));
#267=DIRECTION('center_axis',(0.,-1.,0.));
#268=DIRECTION('ref_axis',(1.,0.,0.));
#269=DIRECTION('center_axis',(0.,-1.,0.));
#270=DIRECTION('ref_axis',(1.,0.,0.));
#271=DIRECTION('center_axis',(0.,-1.,0.));
#272=DIRECTION('ref_axis',(-1.,0.,0.));
#273=DIRECTION('',(0.,-1.,0.));
#274=DIRECTION('center_axis',(0.,-1.,0.));
#275=DIRECTION('ref_axis',(-1.,0.,0.));
#276=DIRECTION('center_axis',(0.,1.,0.));
#277=DIRECTION('ref_axis',(-1.,0.,0.));
#278=DIRECTION('center_axis',(0.,-1.,0.));
#279=DIRECTION('ref_axis',(1.,0.,0.));
#280=DIRECTION('center_axis',(0.,-1.,0.));
#281=DIRECTION('ref_axis',(1.,0.,0.));
#282=DIRECTION('center_axis',(0.,1.,0.));
#283=DIRECTION('ref_axis',(1.,0.,0.));
#284=DIRECTION('center_axis',(0.,-1.,0.));
#285=DIRECTION('ref_axis',(1.,0.,0.));
#286=DIRECTION('',(0.,1.,0.));
#287=DIRECTION('center_axis',(0.,1.,0.));
#288=DIRECTION('ref_axis',(1.,0.,0.));
#289=DIRECTION('',(0.,-1.,0.));
#290=DIRECTION('axis',(0.,0.,1.));
#291=DIRECTION('refdir',(1.,0.,0.));
#292=DIRECTION('center_axis',(0.,1.,0.));
#293=DIRECTION('ref_axis',(1.,0.,0.));
#294=DIRECTION('center_axis',(0.,-1.,0.));
#295=DIRECTION('ref_axis',(1.,0.,0.));
#296=DIRECTION('center_axis',(0.,-1.,0.));
#297=DIRECTION('ref_axis',(0.,0.,1.));
#298=DIRECTION('center_axis',(0.,-1.,0.));
#299=DIRECTION('ref_axis',(0.,0.,1.));
#300=DIRECTION('',(0.,-1.,0.));
#301=DIRECTION('center_axis',(0.,-1.,0.));
#302=DIRECTION('ref_axis',(-1.,0.,0.));
#303=DIRECTION('center_axis',(0.,-1.,0.));
#304=DIRECTION('ref_axis',(-1.,0.,0.));
#305=DIRECTION('',(0.,-1.,0.));
#306=DIRECTION('center_axis',(0.,-1.,0.));
#307=DIRECTION('ref_axis',(-1.,0.,0.));
#308=DIRECTION('center_axis',(0.,1.,0.));
#309=DIRECTION('ref_axis',(-1.,0.,0.));
#310=DIRECTION('center_axis',(0.,0.,1.));
#311=DIRECTION('ref_axis',(1.,0.,0.));
#312=DIRECTION('',(0.,0.,1.));
#313=DIRECTION('center_axis',(0.,1.,0.));
#314=DIRECTION('ref_axis',(1.,0.,0.));
#315=DIRECTION('center_axis',(0.,1.,0.));
#316=DIRECTION('ref_axis',(1.,0.,0.));
#317=DIRECTION('',(0.,-1.,0.));
#318=DIRECTION('center_axis',(0.,1.,0.));
#319=DIRECTION('ref_axis',(1.,0.,0.));
#320=DIRECTION('',(0.,-1.,0.));
#321=DIRECTION('',(1.,0.,0.));
#322=DIRECTION('',(0.,0.,1.));
#323=DIRECTION('',(1.,0.,0.));
#324=CARTESIAN_POINT('',(0.,0.,0.));
#325=CARTESIAN_POINT('',(0.,0.,0.));
#326=CARTESIAN_POINT('Origin',(0.,81.6,0.));
#327=CARTESIAN_POINT('',(-3.,81.6,3.67394039744206E-16));
#328=CARTESIAN_POINT('Origin',(0.,81.6,0.));
#329=CARTESIAN_POINT('',(1.,81.6,-1.22464679914735E-16));
#330=CARTESIAN_POINT('Origin',(0.,81.6,0.));
#331=CARTESIAN_POINT('Origin',(0.,-13.9,0.));
#332=CARTESIAN_POINT('',(-7.5,-13.9,-9.18485099360515E-16));
#333=CARTESIAN_POINT('Origin',(0.,-13.9,0.));
#334=CARTESIAN_POINT('Origin',(0.,80.,0.));
#335=CARTESIAN_POINT('',(1.,75.,-1.22464679914735E-16));
#336=CARTESIAN_POINT('',(1.,80.,1.22464679914735E-16));
#337=CARTESIAN_POINT('Origin',(0.,75.,0.));
#338=CARTESIAN_POINT('Origin',(0.,75.,0.));
#339=CARTESIAN_POINT('Origin',(0.,0.,0.));
#340=CARTESIAN_POINT('',(-7.5,0.,-9.18485099360515E-16));
#341=CARTESIAN_POINT('Origin',(0.,0.,0.));
#342=CARTESIAN_POINT('',(-3.,0.,3.67394039744206E-16));
#343=CARTESIAN_POINT('Origin',(0.,0.,0.));
#344=CARTESIAN_POINT('Origin',(0.,0.,0.));
#345=CARTESIAN_POINT('',(-7.5,0.,-9.18485099360515E-16));
#346=CARTESIAN_POINT('Origin',(0.,0.,0.));
#347=CARTESIAN_POINT('',(-3.,0.,3.67394039744206E-16));
#348=CARTESIAN_POINT('',(0.,0.,0.));
#349=CARTESIAN_POINT('Origin',(0.,-24.6,0.));
#350=CARTESIAN_POINT('',(-4.,-24.6,0.));
#351=CARTESIAN_POINT('Origin',(0.,-24.6,0.));
#352=CARTESIAN_POINT('Origin',(0.,30.204,0.));
#353=CARTESIAN_POINT('',(1.54856587752183E-16,33.,-1.2645));
#354=CARTESIAN_POINT('Origin',(0.,33.,0.));
#355=CARTESIAN_POINT('',(1.815117024347E-16,30.,-1.2645));
#356=CARTESIAN_POINT('',(1.54856587752183E-16,30.204,-1.2645));
#357=CARTESIAN_POINT('',(1.2645,29.7204852048853,-1.38777878078145E-16));
#358=CARTESIAN_POINT('Ctrl Pts',(1.2645,29.7204852048853,-6.93889390390723E-17));
#359=CARTESIAN_POINT('Ctrl Pts',(1.2645,29.7204852048853,-0.161087077729466));
#360=CARTESIAN_POINT('Ctrl Pts',(1.23189284756703,29.7363093212172,-0.331284598838496));
#361=CARTESIAN_POINT('Ctrl Pts',(1.10228460279987,29.7910422715627,-0.642089240033585));
#362=CARTESIAN_POINT('Ctrl Pts',(1.00536362353961,29.8289258674598,-0.782909426081169));
#363=CARTESIAN_POINT('Ctrl Pts',(0.783050789409593,29.898339964461,-1.00522226021119));
#364=CARTESIAN_POINT('Ctrl Pts',(0.642178169455917,29.9346964254845,-1.10224981486569));
#365=CARTESIAN_POINT('Ctrl Pts',(0.331164876802542,29.985827479906,-1.2319404760704));
#366=CARTESIAN_POINT('Ctrl Pts',(0.160882345198149,30.,-1.2645));
#367=CARTESIAN_POINT('Ctrl Pts',(2.42861286636753E-16,30.,-1.2645));
#368=CARTESIAN_POINT('Ctrl Pts',(1.73472347597681E-16,30.,-1.2645));
#369=CARTESIAN_POINT('Ctrl Pts',(-0.160882345198148,30.,-1.2645));
#370=CARTESIAN_POINT('Ctrl Pts',(-0.331164876802543,29.985827479906,-1.2319404760704));
#371=CARTESIAN_POINT('Ctrl Pts',(-0.642178169455917,29.9346964254845,-1.10224981486569));
#372=CARTESIAN_POINT('Ctrl Pts',(-0.783050789409592,29.898339964461,-1.00522226021119));
#373=CARTESIAN_POINT('Ctrl Pts',(-1.00536362353961,29.8289258674598,-0.78290942608117));
#374=CARTESIAN_POINT('Ctrl Pts',(-1.10228460279987,29.7910422715627,-0.642089240033586));
#375=CARTESIAN_POINT('Ctrl Pts',(-1.23189284756703,29.7363093212172,-0.331284598838496));
#376=CARTESIAN_POINT('Ctrl Pts',(-1.2645,29.7204852048853,-0.161087077729466));
#377=CARTESIAN_POINT('Ctrl Pts',(-1.2645,29.7204852048853,0.161087077729465));
#378=CARTESIAN_POINT('Ctrl Pts',(-1.23189284756703,29.7363093212172,0.331284598838495));
#379=CARTESIAN_POINT('Ctrl Pts',(-1.10228460279987,29.7910422715627,0.642089240033584));
#380=CARTESIAN_POINT('Ctrl Pts',(-1.00536362353961,29.8289258674598,0.782909426081169));
#381=CARTESIAN_POINT('Ctrl Pts',(-0.783050789409593,29.898339964461,1.00522226021119));
#382=CARTESIAN_POINT('Ctrl Pts',(-0.642178169455918,29.9346964254845,1.10224981486569));
#383=CARTESIAN_POINT('Ctrl Pts',(-0.331164876802544,29.985827479906,1.2319404760704));
#384=CARTESIAN_POINT('Ctrl Pts',(-0.160882345198149,30.,1.2645));
#385=CARTESIAN_POINT('Ctrl Pts',(0.160882345198148,30.,1.2645));
#386=CARTESIAN_POINT('Ctrl Pts',(0.331164876802542,29.985827479906,1.2319404760704));
#387=CARTESIAN_POINT('Ctrl Pts',(0.642178169455916,29.9346964254845,1.10224981486569));
#388=CARTESIAN_POINT('Ctrl Pts',(0.783050789409592,29.898339964461,1.00522226021119));
#389=CARTESIAN_POINT('Ctrl Pts',(1.00536362353961,29.8289258674598,0.78290942608117));
#390=CARTESIAN_POINT('Ctrl Pts',(1.10228460279987,29.7910422715627,0.642089240033586));
#391=CARTESIAN_POINT('Ctrl Pts',(1.23189284756703,29.7363093212172,0.331284598838497));
#392=CARTESIAN_POINT('Ctrl Pts',(1.2645,29.7204852048853,0.161087077729466));
#393=CARTESIAN_POINT('Ctrl Pts',(1.2645,29.7204852048853,3.46944695195361E-17));
#394=CARTESIAN_POINT('Origin',(0.,35.,0.));
#395=CARTESIAN_POINT('',(2.,35.,-2.44929359829471E-16));
#396=CARTESIAN_POINT('Origin',(0.,35.,0.));
#397=CARTESIAN_POINT('',(2.,33.,-2.44929359829471E-16));
#398=CARTESIAN_POINT('',(2.,35.,2.44929359829471E-16));
#399=CARTESIAN_POINT('Origin',(0.,33.,0.));
#400=CARTESIAN_POINT('Origin',(0.,33.,0.));
#401=CARTESIAN_POINT('Origin',(0.,27.,0.));
#402=CARTESIAN_POINT('',(-3.,27.,-2.64575131106459));
#403=CARTESIAN_POINT('Ctrl Pts',(3.,27.,-2.64575131106459));
#404=CARTESIAN_POINT('Ctrl Pts',(3.,27.2014467721507,-2.64575131106459));
#405=CARTESIAN_POINT('Ctrl Pts',(2.97950772116504,27.403635841556,-2.66946656583193));
#406=CARTESIAN_POINT('Ctrl Pts',(2.89904864856832,27.7974365991683,-2.75663470560297));
#407=CARTESIAN_POINT('Ctrl Pts',(2.8391288325358,27.9891429794725,-2.81970270384708));
#408=CARTESIAN_POINT('Ctrl Pts',(2.607687447172,28.5349908017058,-3.0406356980255));
#409=CARTESIAN_POINT('Ctrl Pts',(2.3818594275205,28.8607812595988,-3.22818652826944));
#410=CARTESIAN_POINT('Ctrl Pts',(1.86626118858042,29.3763794985389,-3.55071552231379));
#411=CARTESIAN_POINT('Ctrl Pts',(1.53982355552793,29.6054860088286,-3.71172434841458));
#412=CARTESIAN_POINT('Ctrl Pts',(0.804292530598247,29.9176580029427,-3.93713960479867));
#413=CARTESIAN_POINT('Ctrl Pts',(0.394419468257353,30.,-4.));
#414=CARTESIAN_POINT('Ctrl Pts',(-0.394419468257353,30.,-4.));
#415=CARTESIAN_POINT('Ctrl Pts',(-0.804292530598247,29.9176580029427,-3.93713960479867));
#416=CARTESIAN_POINT('Ctrl Pts',(-1.53982355552793,29.6054860088286,-3.71172434841458));
#417=CARTESIAN_POINT('Ctrl Pts',(-1.86626118858042,29.3763794985389,-3.55071552231379));
#418=CARTESIAN_POINT('Ctrl Pts',(-2.3818594275205,28.8607812595988,-3.22818652826944));
#419=CARTESIAN_POINT('Ctrl Pts',(-2.607687447172,28.5349908017058,-3.0406356980255));
#420=CARTESIAN_POINT('Ctrl Pts',(-2.8391288325358,27.9891429794725,-2.81970270384708));
#421=CARTESIAN_POINT('Ctrl Pts',(-2.89904864856832,27.7974365991683,-2.75663470560297));
#422=CARTESIAN_POINT('Ctrl Pts',(-2.97950772116504,27.403635841556,-2.66946656583193));
#423=CARTESIAN_POINT('Ctrl Pts',(-3.,27.2014467721507,-2.64575131106459));
#424=CARTESIAN_POINT('Ctrl Pts',(-3.,26.7985532278493,-2.64575131106459));
#425=CARTESIAN_POINT('Ctrl Pts',(-2.97950772116504,26.596364158444,-2.66946656583193));
#426=CARTESIAN_POINT('Ctrl Pts',(-2.89904864856832,26.2025634008317,-2.75663470560297));
#427=CARTESIAN_POINT('Ctrl Pts',(-2.8391288325358,26.0108570205275,-2.81970270384708));
#428=CARTESIAN_POINT('Ctrl Pts',(-2.607687447172,25.4650091982942,-3.0406356980255));
#429=CARTESIAN_POINT('Ctrl Pts',(-2.3818594275205,25.1392187404012,-3.22818652826944));
#430=CARTESIAN_POINT('Ctrl Pts',(-1.86626118858042,24.6236205014611,-3.55071552231379));
#431=CARTESIAN_POINT('Ctrl Pts',(-1.53982355552793,24.3945139911714,-3.71172434841458));
#432=CARTESIAN_POINT('Ctrl Pts',(-0.804292530598248,24.0823419970573,-3.93713960479867));
#433=CARTESIAN_POINT('Ctrl Pts',(-0.394419468257354,24.,-4.));
#434=CARTESIAN_POINT('Ctrl Pts',(0.394419468257353,24.,-4.));
#435=CARTESIAN_POINT('Ctrl Pts',(0.804292530598244,24.0823419970573,-3.93713960479867));
#436=CARTESIAN_POINT('Ctrl Pts',(1.53982355552792,24.3945139911714,-3.71172434841458));
#437=CARTESIAN_POINT('Ctrl Pts',(1.86626118858042,24.6236205014611,-3.55071552231379));
#438=CARTESIAN_POINT('Ctrl Pts',(2.3818594275205,25.1392187404012,-3.22818652826944));
#439=CARTESIAN_POINT('Ctrl Pts',(2.607687447172,25.4650091982942,-3.0406356980255));
#440=CARTESIAN_POINT('Ctrl Pts',(2.8391288325358,26.0108570205275,-2.81970270384708));
#441=CARTESIAN_POINT('Ctrl Pts',(2.89904864856832,26.2025634008317,-2.75663470560297));
#442=CARTESIAN_POINT('Ctrl Pts',(2.97950772116504,26.596364158444,-2.66946656583193));
#443=CARTESIAN_POINT('Ctrl Pts',(3.,26.7985532278493,-2.64575131106459));
#444=CARTESIAN_POINT('Ctrl Pts',(3.,27.,-2.64575131106459));
#445=CARTESIAN_POINT('',(-3.,27.,2.64575131106459));
#446=CARTESIAN_POINT('',(-3.,27.,0.));
#447=CARTESIAN_POINT('',(3.,27.,2.64575131106459));
#448=CARTESIAN_POINT('Ctrl Pts',(3.,27.,2.64575131106459));
#449=CARTESIAN_POINT('Ctrl Pts',(3.,26.7985532278493,2.64575131106459));
#450=CARTESIAN_POINT('Ctrl Pts',(2.97950772116504,26.596364158444,2.66946656583193));
#451=CARTESIAN_POINT('Ctrl Pts',(2.89904864856832,26.2025634008317,2.75663470560297));
#452=CARTESIAN_POINT('Ctrl Pts',(2.8391288325358,26.0108570205275,2.81970270384708));
#453=CARTESIAN_POINT('Ctrl Pts',(2.607687447172,25.4650091982942,3.0406356980255));
#454=CARTESIAN_POINT('Ctrl Pts',(2.3818594275205,25.1392187404012,3.22818652826944));
#455=CARTESIAN_POINT('Ctrl Pts',(1.86626118858042,24.6236205014611,3.55071552231379));
#456=CARTESIAN_POINT('Ctrl Pts',(1.53982355552792,24.3945139911714,3.71172434841458));
#457=CARTESIAN_POINT('Ctrl Pts',(0.804292530598242,24.0823419970573,3.93713960479867));
#458=CARTESIAN_POINT('Ctrl Pts',(0.394419468257353,24.,4.));
#459=CARTESIAN_POINT('Ctrl Pts',(-0.394419468257354,24.,4.));
#460=CARTESIAN_POINT('Ctrl Pts',(-0.804292530598248,24.0823419970573,3.93713960479867));
#461=CARTESIAN_POINT('Ctrl Pts',(-1.53982355552793,24.3945139911714,3.71172434841458));
#462=CARTESIAN_POINT('Ctrl Pts',(-1.86626118858042,24.6236205014611,3.55071552231379));
#463=CARTESIAN_POINT('Ctrl Pts',(-2.3818594275205,25.1392187404012,3.22818652826944));
#464=CARTESIAN_POINT('Ctrl Pts',(-2.607687447172,25.4650091982942,3.0406356980255));
#465=CARTESIAN_POINT('Ctrl Pts',(-2.8391288325358,26.0108570205275,2.81970270384708));
#466=CARTESIAN_POINT('Ctrl Pts',(-2.89904864856832,26.2025634008317,2.75663470560297));
#467=CARTESIAN_POINT('Ctrl Pts',(-2.97950772116504,26.596364158444,2.66946656583193));
#468=CARTESIAN_POINT('Ctrl Pts',(-3.,26.7985532278493,2.64575131106459));
#469=CARTESIAN_POINT('Ctrl Pts',(-3.,27.,2.64575131106459));
#470=CARTESIAN_POINT('Ctrl Pts',(-3.,27.,2.64575131106459));
#471=CARTESIAN_POINT('Ctrl Pts',(-3.,27.2014467721507,2.64575131106459));
#472=CARTESIAN_POINT('Ctrl Pts',(-2.97950772116504,27.403635841556,2.66946656583193));
#473=CARTESIAN_POINT('Ctrl Pts',(-2.89904864856832,27.7974365991683,2.75663470560297));
#474=CARTESIAN_POINT('Ctrl Pts',(-2.8391288325358,27.9891429794725,2.81970270384708));
#475=CARTESIAN_POINT('Ctrl Pts',(-2.60768744717201,28.5349908017058,3.0406356980255));
#476=CARTESIAN_POINT('Ctrl Pts',(-2.3818594275205,28.8607812595988,3.22818652826944));
#477=CARTESIAN_POINT('Ctrl Pts',(-1.86626118858042,29.3763794985389,3.55071552231379));
#478=CARTESIAN_POINT('Ctrl Pts',(-1.53982355552793,29.6054860088286,3.71172434841458));
#479=CARTESIAN_POINT('Ctrl Pts',(-0.804292530598247,29.9176580029427,3.93713960479867));
#480=CARTESIAN_POINT('Ctrl Pts',(-0.394419468257353,30.,4.));
#481=CARTESIAN_POINT('Ctrl Pts',(0.394419468257353,30.,4.));
#482=CARTESIAN_POINT('Ctrl Pts',(0.804292530598247,29.9176580029427,3.93713960479867));
#483=CARTESIAN_POINT('Ctrl Pts',(1.53982355552793,29.6054860088286,3.71172434841458));
#484=CARTESIAN_POINT('Ctrl Pts',(1.86626118858042,29.3763794985389,3.55071552231379));
#485=CARTESIAN_POINT('Ctrl Pts',(2.3818594275205,28.8607812595988,3.22818652826944));
#486=CARTESIAN_POINT('Ctrl Pts',(2.607687447172,28.5349908017058,3.0406356980255));
#487=CARTESIAN_POINT('Ctrl Pts',(2.8391288325358,27.9891429794725,2.81970270384708));
#488=CARTESIAN_POINT('Ctrl Pts',(2.89904864856832,27.7974365991683,2.75663470560297));
#489=CARTESIAN_POINT('Ctrl Pts',(2.97950772116504,27.4036358415559,2.66946656583193));
#490=CARTESIAN_POINT('Ctrl Pts',(3.,27.2014467721507,2.64575131106459));
#491=CARTESIAN_POINT('Ctrl Pts',(3.,27.,2.64575131106459));
#492=CARTESIAN_POINT('Origin',(0.,0.,0.));
#493=CARTESIAN_POINT('',(-4.,35.,4.89858719658941E-16));
#494=CARTESIAN_POINT('Origin',(0.,35.,0.));
#495=CARTESIAN_POINT('',(-4.,0.,4.89858719658941E-16));
#496=CARTESIAN_POINT('Origin',(0.,35.,0.));
#497=CARTESIAN_POINT('',(0.,55.5000008270144,-12.2805273257154));
#498=CARTESIAN_POINT('',(0.,28.5000008270144,22.5692655536143));
#499=UNCERTAINTY_MEASURE_WITH_UNIT(LENGTH_MEASURE(0.01),#507,
'DISTANCE_ACCURACY_VALUE',
'Maximum model space distance between geometric entities at asserted c
onnectivities');
#500=UNCERTAINTY_MEASURE_WITH_UNIT(LENGTH_MEASURE(0.01),#507,
'DISTANCE_ACCURACY_VALUE',
'Maximum model space distance between geometric entities at asserted c
onnectivities');
#501=UNCERTAINTY_MEASURE_WITH_UNIT(LENGTH_MEASURE(0.01),#507,
'DISTANCE_ACCURACY_VALUE',
'Maximum model space distance between geometric entities at asserted c
onnectivities');
#502=UNCERTAINTY_MEASURE_WITH_UNIT(LENGTH_MEASURE(0.01),#507,
'DISTANCE_ACCURACY_VALUE',
'Maximum model space distance between geometric entities at asserted c
onnectivities');
#503=(
GEOMETRIC_REPRESENTATION_CONTEXT(3)
GLOBAL_UNCERTAINTY_ASSIGNED_CONTEXT((#499))
GLOBAL_UNIT_ASSIGNED_CONTEXT((#507,#509,#510))
REPRESENTATION_CONTEXT('','3D')
);
#504=(
GEOMETRIC_REPRESENTATION_CONTEXT(3)
GLOBAL_UNCERTAINTY_ASSIGNED_CONTEXT((#500))
GLOBAL_UNIT_ASSIGNED_CONTEXT((#507,#509,#510))
REPRESENTATION_CONTEXT('','3D')
);
#505=(
GEOMETRIC_REPRESENTATION_CONTEXT(3)
GLOBAL_UNCERTAINTY_ASSIGNED_CONTEXT((#501))
GLOBAL_UNIT_ASSIGNED_CONTEXT((#507,#509,#510))
REPRESENTATION_CONTEXT('','3D')
);
#506=(
GEOMETRIC_REPRESENTATION_CONTEXT(3)
GLOBAL_UNCERTAINTY_ASSIGNED_CONTEXT((#502))
GLOBAL_UNIT_ASSIGNED_CONTEXT((#507,#509,#510))
REPRESENTATION_CONTEXT('','3D')
);
#507=(
LENGTH_UNIT()
NAMED_UNIT(*)
SI_UNIT(.MILLI.,.METRE.)
);
#508=(
LENGTH_UNIT()
NAMED_UNIT(*)
SI_UNIT($,.METRE.)
);
#509=(
NAMED_UNIT(*)
PLANE_ANGLE_UNIT()
SI_UNIT($,.RADIAN.)
);
#510=(
NAMED_UNIT(*)
SI_UNIT($,.STERADIAN.)
SOLID_ANGLE_UNIT()
);
#511=SHAPE_DEFINITION_REPRESENTATION(#514,#519);
#512=SHAPE_DEFINITION_REPRESENTATION(#515,#520);
#513=SHAPE_DEFINITION_REPRESENTATION(#516,#521);
#514=PRODUCT_DEFINITION_SHAPE('',$,#523);
#515=PRODUCT_DEFINITION_SHAPE('',$,#524);
#516=PRODUCT_DEFINITION_SHAPE('',$,#525);
#517=PRODUCT_DEFINITION_SHAPE($,$,#17);
#518=PRODUCT_DEFINITION_SHAPE($,$,#18);
#519=SHAPE_REPRESENTATION('',(#227,#255,#256),#503);
#520=SHAPE_REPRESENTATION('',(#228),#504);
#521=SHAPE_REPRESENTATION('',(#242),#505);
#522=PRODUCT_DEFINITION_CONTEXT('part definition',#533,'design');
#523=PRODUCT_DEFINITION('8mm Mounting','8mm Mounting v1',#526,#522);
#524=PRODUCT_DEFINITION('Eye Lever','Eye Lever v6',#527,#522);
#525=PRODUCT_DEFINITION('Encoder Attachment','Encoder Attachment v6',#528,
#522);
#526=PRODUCT_DEFINITION_FORMATION('',$,#535);
#527=PRODUCT_DEFINITION_FORMATION('',$,#536);
#528=PRODUCT_DEFINITION_FORMATION('',$,#537);
#529=PRODUCT_RELATED_PRODUCT_CATEGORY('8mm Mounting v1',
'8mm Mounting v1',(#535));
#530=PRODUCT_RELATED_PRODUCT_CATEGORY('Eye Lever v6','Eye Lever v6',(#536));
#531=PRODUCT_RELATED_PRODUCT_CATEGORY('Encoder Attachment v6',
'Encoder Attachment v6',(#537));
#532=APPLICATION_PROTOCOL_DEFINITION('international standard',
'automotive_design',2009,#533);
#533=APPLICATION_CONTEXT(
'Core Data for Automotive Mechanical Design Process');
#534=PRODUCT_CONTEXT('part definition',#533,'mechanical');
#535=PRODUCT('8mm Mounting','8mm Mounting v1',$,(#534));
#536=PRODUCT('Eye Lever','Eye Lever v6',$,(#534));
#537=PRODUCT('Encoder Attachment','Encoder Attachment v6',$,(#534));
#538=PRESENTATION_STYLE_ASSIGNMENT((#540));
#539=PRESENTATION_STYLE_ASSIGNMENT((#541));
#540=SURFACE_STYLE_USAGE(.BOTH.,#542);
#541=SURFACE_STYLE_USAGE(.BOTH.,#543);
#542=SURFACE_SIDE_STYLE('',(#544));
#543=SURFACE_SIDE_STYLE('',(#545));
#544=SURFACE_STYLE_FILL_AREA(#546);
#545=SURFACE_STYLE_FILL_AREA(#547);
#546=FILL_AREA_STYLE('Aluminum - Satin',(#548));
#547=FILL_AREA_STYLE('Aluminum - Bead Blasted',(#549));
#548=FILL_AREA_STYLE_COLOUR('Aluminum - Satin',#550);
#549=FILL_AREA_STYLE_COLOUR('Aluminum - Bead Blasted',#551);
#550=COLOUR_RGB('Aluminum - Satin',0.96078431372549,0.96078431372549,0.964705882352941);
#551=COLOUR_RGB('Aluminum - Bead Blasted',0.96078431372549,0.96078431372549,
0.964705882352941);
ENDSEC;
END-ISO-10303-21;
