ISO-10303-21;
HEADER;
/* Generated by software containing ST-Developer
 * from STEP Tools, Inc. (www.steptools.com) 
 */

FILE_DESCRIPTION(
/* description */ (''),
/* implementation_level */ '2;1');

FILE_NAME(
/* name */ 'Connector V3 22mm bearing hole v1.step',
/* time_stamp */ '2023-05-24T16:45:48-07:00',
/* author */ (''),
/* organization */ (''),
/* preprocessor_version */ 'ST-DEVELOPER v19.2',
/* originating_system */ 'Autodesk Translation Framework v12.4.0.73',
/* authorisation */ '');

FILE_SCHEMA (('AUTOMOTIVE_DESIGN { 1 0 10303 214 3 1 1 }'));
ENDSEC;

DATA;
#10=MECHANICAL_DESIGN_GEOMETRIC_PRESENTATION_REPRESENTATION('',(#13),#393);
#11=SHAPE_REPRESENTATION_RELATIONSHIP('SRR','None',#399,#12);
#12=ADVANCED_BREP_SHAPE_REPRESENTATION('',(#14),#392);
#13=STYLED_ITEM('',(#409),#14);
#14=MANIFOLD_SOLID_BREP('Body1',#241);
#15=CYLINDRICAL_SURFACE('',#247,1.5);
#16=CYLINDRICAL_SURFACE('',#249,1.5);
#17=CYLINDRICAL_SURFACE('',#251,3.15);
#18=CYLINDRICAL_SURFACE('',#256,11.);
#19=FACE_BOUND('',#48,.T.);
#20=FACE_BOUND('',#49,.T.);
#21=FACE_BOUND('',#50,.T.);
#22=FACE_BOUND('',#55,.T.);
#23=FACE_BOUND('',#59,.T.);
#24=FACE_BOUND('',#64,.T.);
#25=FACE_BOUND('',#65,.T.);
#26=FACE_BOUND('',#66,.T.);
#27=CIRCLE('',#244,1.5);
#28=CIRCLE('',#245,1.5);
#29=CIRCLE('',#246,11.);
#30=CIRCLE('',#248,1.5);
#31=CIRCLE('',#250,1.5);
#32=CIRCLE('',#252,3.15);
#33=CIRCLE('',#253,3.15);
#34=CIRCLE('',#257,11.);
#35=FACE_OUTER_BOUND('',#47,.T.);
#36=FACE_OUTER_BOUND('',#51,.T.);
#37=FACE_OUTER_BOUND('',#52,.T.);
#38=FACE_OUTER_BOUND('',#53,.T.);
#39=FACE_OUTER_BOUND('',#54,.T.);
#40=FACE_OUTER_BOUND('',#56,.T.);
#41=FACE_OUTER_BOUND('',#57,.T.);
#42=FACE_OUTER_BOUND('',#58,.T.);
#43=FACE_OUTER_BOUND('',#60,.T.);
#44=FACE_OUTER_BOUND('',#61,.T.);
#45=FACE_OUTER_BOUND('',#62,.T.);
#46=FACE_OUTER_BOUND('',#63,.T.);
#47=EDGE_LOOP('',(#161,#162,#163,#164));
#48=EDGE_LOOP('',(#165));
#49=EDGE_LOOP('',(#166));
#50=EDGE_LOOP('',(#167));
#51=EDGE_LOOP('',(#168,#169,#170,#171));
#52=EDGE_LOOP('',(#172,#173,#174,#175));
#53=EDGE_LOOP('',(#176,#177,#178,#179));
#54=EDGE_LOOP('',(#180,#181,#182,#183));
#55=EDGE_LOOP('',(#184));
#56=EDGE_LOOP('',(#185,#186,#187,#188));
#57=EDGE_LOOP('',(#189,#190,#191,#192));
#58=EDGE_LOOP('',(#193,#194,#195,#196));
#59=EDGE_LOOP('',(#197));
#60=EDGE_LOOP('',(#198,#199,#200,#201,#202,#203));
#61=EDGE_LOOP('',(#204,#205,#206,#207));
#62=EDGE_LOOP('',(#208,#209,#210,#211,#212,#213));
#63=EDGE_LOOP('',(#214,#215,#216,#217));
#64=EDGE_LOOP('',(#218));
#65=EDGE_LOOP('',(#219));
#66=EDGE_LOOP('',(#220));
#67=LINE('',#331,#89);
#68=LINE('',#333,#90);
#69=LINE('',#335,#91);
#70=LINE('',#336,#92);
#71=LINE('',#345,#93);
#72=LINE('',#349,#94);
#73=LINE('',#355,#95);
#74=LINE('',#360,#96);
#75=LINE('',#362,#97);
#76=LINE('',#364,#98);
#77=LINE('',#365,#99);
#78=LINE('',#368,#100);
#79=LINE('',#370,#101);
#80=LINE('',#371,#102);
#81=LINE('',#374,#103);
#82=LINE('',#377,#104);
#83=LINE('',#378,#105);
#84=LINE('',#381,#106);
#85=LINE('',#382,#107);
#86=LINE('',#385,#108);
#87=LINE('',#386,#109);
#88=LINE('',#388,#110);
#89=VECTOR('',#267,10.);
#90=VECTOR('',#268,10.);
#91=VECTOR('',#269,10.);
#92=VECTOR('',#270,10.);
#93=VECTOR('',#279,1.5);
#94=VECTOR('',#284,1.5);
#95=VECTOR('',#291,3.15);
#96=VECTOR('',#296,10.);
#97=VECTOR('',#297,10.);
#98=VECTOR('',#298,10.);
#99=VECTOR('',#299,10.);
#100=VECTOR('',#302,10.);
#101=VECTOR('',#303,10.);
#102=VECTOR('',#304,10.);
#103=VECTOR('',#307,11.);
#104=VECTOR('',#312,10.);
#105=VECTOR('',#313,10.);
#106=VECTOR('',#316,10.);
#107=VECTOR('',#317,10.);
#108=VECTOR('',#320,10.);
#109=VECTOR('',#321,10.);
#110=VECTOR('',#324,10.);
#111=VERTEX_POINT('',#329);
#112=VERTEX_POINT('',#330);
#113=VERTEX_POINT('',#332);
#114=VERTEX_POINT('',#334);
#115=VERTEX_POINT('',#337);
#116=VERTEX_POINT('',#339);
#117=VERTEX_POINT('',#341);
#118=VERTEX_POINT('',#344);
#119=VERTEX_POINT('',#348);
#120=VERTEX_POINT('',#352);
#121=VERTEX_POINT('',#354);
#122=VERTEX_POINT('',#358);
#123=VERTEX_POINT('',#359);
#124=VERTEX_POINT('',#361);
#125=VERTEX_POINT('',#363);
#126=VERTEX_POINT('',#367);
#127=VERTEX_POINT('',#369);
#128=VERTEX_POINT('',#373);
#129=VERTEX_POINT('',#380);
#130=VERTEX_POINT('',#384);
#131=EDGE_CURVE('',#111,#112,#67,.T.);
#132=EDGE_CURVE('',#112,#113,#68,.T.);
#133=EDGE_CURVE('',#113,#114,#69,.T.);
#134=EDGE_CURVE('',#114,#111,#70,.T.);
#135=EDGE_CURVE('',#115,#115,#27,.T.);
#136=EDGE_CURVE('',#116,#116,#28,.T.);
#137=EDGE_CURVE('',#117,#117,#29,.T.);
#138=EDGE_CURVE('',#116,#118,#71,.T.);
#139=EDGE_CURVE('',#118,#118,#30,.T.);
#140=EDGE_CURVE('',#115,#119,#72,.T.);
#141=EDGE_CURVE('',#119,#119,#31,.T.);
#142=EDGE_CURVE('',#120,#120,#32,.T.);
#143=EDGE_CURVE('',#120,#121,#73,.T.);
#144=EDGE_CURVE('',#121,#121,#33,.T.);
#145=EDGE_CURVE('',#122,#123,#74,.T.);
#146=EDGE_CURVE('',#122,#124,#75,.T.);
#147=EDGE_CURVE('',#125,#124,#76,.T.);
#148=EDGE_CURVE('',#123,#125,#77,.T.);
#149=EDGE_CURVE('',#124,#126,#78,.T.);
#150=EDGE_CURVE('',#126,#127,#79,.T.);
#151=EDGE_CURVE('',#127,#125,#80,.T.);
#152=EDGE_CURVE('',#117,#128,#81,.T.);
#153=EDGE_CURVE('',#128,#128,#34,.T.);
#154=EDGE_CURVE('',#127,#113,#82,.T.);
#155=EDGE_CURVE('',#114,#126,#83,.T.);
#156=EDGE_CURVE('',#129,#122,#84,.T.);
#157=EDGE_CURVE('',#111,#129,#85,.T.);
#158=EDGE_CURVE('',#130,#129,#86,.T.);
#159=EDGE_CURVE('',#112,#130,#87,.T.);
#160=EDGE_CURVE('',#123,#130,#88,.T.);
#161=ORIENTED_EDGE('',*,*,#131,.T.);
#162=ORIENTED_EDGE('',*,*,#132,.T.);
#163=ORIENTED_EDGE('',*,*,#133,.T.);
#164=ORIENTED_EDGE('',*,*,#134,.T.);
#165=ORIENTED_EDGE('',*,*,#135,.T.);
#166=ORIENTED_EDGE('',*,*,#136,.T.);
#167=ORIENTED_EDGE('',*,*,#137,.T.);
#168=ORIENTED_EDGE('',*,*,#136,.F.);
#169=ORIENTED_EDGE('',*,*,#138,.T.);
#170=ORIENTED_EDGE('',*,*,#139,.F.);
#171=ORIENTED_EDGE('',*,*,#138,.F.);
#172=ORIENTED_EDGE('',*,*,#135,.F.);
#173=ORIENTED_EDGE('',*,*,#140,.T.);
#174=ORIENTED_EDGE('',*,*,#141,.F.);
#175=ORIENTED_EDGE('',*,*,#140,.F.);
#176=ORIENTED_EDGE('',*,*,#142,.F.);
#177=ORIENTED_EDGE('',*,*,#143,.T.);
#178=ORIENTED_EDGE('',*,*,#144,.F.);
#179=ORIENTED_EDGE('',*,*,#143,.F.);
#180=ORIENTED_EDGE('',*,*,#145,.F.);
#181=ORIENTED_EDGE('',*,*,#146,.T.);
#182=ORIENTED_EDGE('',*,*,#147,.F.);
#183=ORIENTED_EDGE('',*,*,#148,.F.);
#184=ORIENTED_EDGE('',*,*,#144,.T.);
#185=ORIENTED_EDGE('',*,*,#149,.T.);
#186=ORIENTED_EDGE('',*,*,#150,.T.);
#187=ORIENTED_EDGE('',*,*,#151,.T.);
#188=ORIENTED_EDGE('',*,*,#147,.T.);
#189=ORIENTED_EDGE('',*,*,#137,.F.);
#190=ORIENTED_EDGE('',*,*,#152,.T.);
#191=ORIENTED_EDGE('',*,*,#153,.F.);
#192=ORIENTED_EDGE('',*,*,#152,.F.);
#193=ORIENTED_EDGE('',*,*,#154,.F.);
#194=ORIENTED_EDGE('',*,*,#150,.F.);
#195=ORIENTED_EDGE('',*,*,#155,.F.);
#196=ORIENTED_EDGE('',*,*,#133,.F.);
#197=ORIENTED_EDGE('',*,*,#142,.T.);
#198=ORIENTED_EDGE('',*,*,#155,.T.);
#199=ORIENTED_EDGE('',*,*,#149,.F.);
#200=ORIENTED_EDGE('',*,*,#146,.F.);
#201=ORIENTED_EDGE('',*,*,#156,.F.);
#202=ORIENTED_EDGE('',*,*,#157,.F.);
#203=ORIENTED_EDGE('',*,*,#134,.F.);
#204=ORIENTED_EDGE('',*,*,#157,.T.);
#205=ORIENTED_EDGE('',*,*,#158,.F.);
#206=ORIENTED_EDGE('',*,*,#159,.F.);
#207=ORIENTED_EDGE('',*,*,#131,.F.);
#208=ORIENTED_EDGE('',*,*,#159,.T.);
#209=ORIENTED_EDGE('',*,*,#160,.F.);
#210=ORIENTED_EDGE('',*,*,#148,.T.);
#211=ORIENTED_EDGE('',*,*,#151,.F.);
#212=ORIENTED_EDGE('',*,*,#154,.T.);
#213=ORIENTED_EDGE('',*,*,#132,.F.);
#214=ORIENTED_EDGE('',*,*,#145,.T.);
#215=ORIENTED_EDGE('',*,*,#160,.T.);
#216=ORIENTED_EDGE('',*,*,#158,.T.);
#217=ORIENTED_EDGE('',*,*,#156,.T.);
#218=ORIENTED_EDGE('',*,*,#139,.T.);
#219=ORIENTED_EDGE('',*,*,#141,.T.);
#220=ORIENTED_EDGE('',*,*,#153,.T.);
#221=PLANE('',#243);
#222=PLANE('',#254);
#223=PLANE('',#255);
#224=PLANE('',#258);
#225=PLANE('',#259);
#226=PLANE('',#260);
#227=PLANE('',#261);
#228=PLANE('',#262);
#229=ADVANCED_FACE('',(#35,#19,#20,#21),#221,.T.);
#230=ADVANCED_FACE('',(#36),#15,.F.);
#231=ADVANCED_FACE('',(#37),#16,.F.);
#232=ADVANCED_FACE('',(#38),#17,.F.);
#233=ADVANCED_FACE('',(#39,#22),#222,.T.);
#234=ADVANCED_FACE('',(#40),#223,.T.);
#235=ADVANCED_FACE('',(#41),#18,.F.);
#236=ADVANCED_FACE('',(#42,#23),#224,.T.);
#237=ADVANCED_FACE('',(#43),#225,.T.);
#238=ADVANCED_FACE('',(#44),#226,.T.);
#239=ADVANCED_FACE('',(#45),#227,.T.);
#240=ADVANCED_FACE('',(#46,#24,#25,#26),#228,.T.);
#241=CLOSED_SHELL('',(#229,#230,#231,#232,#233,#234,#235,#236,#237,#238,
#239,#240));
#242=AXIS2_PLACEMENT_3D('',#327,#263,#264);
#243=AXIS2_PLACEMENT_3D('',#328,#265,#266);
#244=AXIS2_PLACEMENT_3D('',#338,#271,#272);
#245=AXIS2_PLACEMENT_3D('',#340,#273,#274);
#246=AXIS2_PLACEMENT_3D('',#342,#275,#276);
#247=AXIS2_PLACEMENT_3D('',#343,#277,#278);
#248=AXIS2_PLACEMENT_3D('',#346,#280,#281);
#249=AXIS2_PLACEMENT_3D('',#347,#282,#283);
#250=AXIS2_PLACEMENT_3D('',#350,#285,#286);
#251=AXIS2_PLACEMENT_3D('',#351,#287,#288);
#252=AXIS2_PLACEMENT_3D('',#353,#289,#290);
#253=AXIS2_PLACEMENT_3D('',#356,#292,#293);
#254=AXIS2_PLACEMENT_3D('',#357,#294,#295);
#255=AXIS2_PLACEMENT_3D('',#366,#300,#301);
#256=AXIS2_PLACEMENT_3D('',#372,#305,#306);
#257=AXIS2_PLACEMENT_3D('',#375,#308,#309);
#258=AXIS2_PLACEMENT_3D('',#376,#310,#311);
#259=AXIS2_PLACEMENT_3D('',#379,#314,#315);
#260=AXIS2_PLACEMENT_3D('',#383,#318,#319);
#261=AXIS2_PLACEMENT_3D('',#387,#322,#323);
#262=AXIS2_PLACEMENT_3D('',#389,#325,#326);
#263=DIRECTION('axis',(0.,0.,1.));
#264=DIRECTION('refdir',(1.,0.,0.));
#265=DIRECTION('center_axis',(-2.09000481184809E-47,-5.42341872339446E-31,
-1.));
#266=DIRECTION('ref_axis',(1.,-1.13349712285615E-77,-2.09000481184809E-47));
#267=DIRECTION('',(-1.,2.01858731750028E-17,9.9524038659433E-48));
#268=DIRECTION('',(-5.42775700927854E-16,1.,-5.42341872339446E-31));
#269=DIRECTION('',(1.,-9.68921912400136E-16,5.04586876003325E-46));
#270=DIRECTION('',(0.,-1.,5.42341872339446E-31));
#271=DIRECTION('center_axis',(0.,5.42341872339446E-31,1.));
#272=DIRECTION('ref_axis',(1.,0.,0.));
#273=DIRECTION('center_axis',(0.,5.42341872339446E-31,1.));
#274=DIRECTION('ref_axis',(1.,0.,0.));
#275=DIRECTION('center_axis',(0.,5.42341872339446E-31,1.));
#276=DIRECTION('ref_axis',(1.,0.,0.));
#277=DIRECTION('center_axis',(0.,0.,1.));
#278=DIRECTION('ref_axis',(1.,0.,0.));
#279=DIRECTION('',(0.,0.,1.));
#280=DIRECTION('center_axis',(0.,0.,-1.));
#281=DIRECTION('ref_axis',(1.,0.,0.));
#282=DIRECTION('center_axis',(0.,0.,1.));
#283=DIRECTION('ref_axis',(1.,0.,0.));
#284=DIRECTION('',(0.,0.,1.));
#285=DIRECTION('center_axis',(0.,0.,-1.));
#286=DIRECTION('ref_axis',(1.,0.,0.));
#287=DIRECTION('center_axis',(-1.25590839889724E-15,-1.,0.));
#288=DIRECTION('ref_axis',(-1.,1.25590839889724E-15,0.));
#289=DIRECTION('center_axis',(-9.68921912400136E-16,-1.,0.));
#290=DIRECTION('ref_axis',(-1.,1.25590839889724E-15,0.));
#291=DIRECTION('',(-1.25590839889724E-15,-1.,0.));
#292=DIRECTION('center_axis',(0.,1.,0.));
#293=DIRECTION('ref_axis',(-1.,1.25590839889724E-15,0.));
#294=DIRECTION('center_axis',(0.,-1.,0.));
#295=DIRECTION('ref_axis',(1.,0.,0.));
#296=DIRECTION('',(-1.,0.,0.));
#297=DIRECTION('',(0.,0.,1.));
#298=DIRECTION('',(1.,0.,0.));
#299=DIRECTION('',(0.,0.,1.));
#300=DIRECTION('center_axis',(0.,0.,1.));
#301=DIRECTION('ref_axis',(1.,0.,0.));
#302=DIRECTION('',(0.,1.,0.));
#303=DIRECTION('',(-1.,9.68921912400136E-16,0.));
#304=DIRECTION('',(5.42775700927854E-16,-1.,0.));
#305=DIRECTION('center_axis',(0.,0.,1.));
#306=DIRECTION('ref_axis',(1.,0.,0.));
#307=DIRECTION('',(0.,0.,1.));
#308=DIRECTION('center_axis',(0.,0.,-1.));
#309=DIRECTION('ref_axis',(1.,0.,0.));
#310=DIRECTION('center_axis',(9.68921912400136E-16,1.,0.));
#311=DIRECTION('ref_axis',(-1.,9.68921912400136E-16,0.));
#312=DIRECTION('',(0.,0.,-1.));
#313=DIRECTION('',(0.,0.,1.));
#314=DIRECTION('center_axis',(1.,0.,0.));
#315=DIRECTION('ref_axis',(0.,1.,0.));
#316=DIRECTION('',(0.,1.,0.));
#317=DIRECTION('',(0.,0.,1.));
#318=DIRECTION('center_axis',(-4.48216423421029E-33,-1.,0.));
#319=DIRECTION('ref_axis',(1.,-4.48216423421029E-33,0.));
#320=DIRECTION('',(1.,-4.48216423421029E-33,0.));
#321=DIRECTION('',(0.,0.,1.));
#322=DIRECTION('center_axis',(-1.,-5.42775700927854E-16,0.));
#323=DIRECTION('ref_axis',(5.42775700927854E-16,-1.,0.));
#324=DIRECTION('',(5.42775700927854E-16,-1.,0.));
#325=DIRECTION('center_axis',(0.,0.,1.));
#326=DIRECTION('ref_axis',(1.,0.,0.));
#327=CARTESIAN_POINT('',(0.,0.,0.));
#328=CARTESIAN_POINT('Origin',(47.5,22.5,-7.));
#329=CARTESIAN_POINT('',(75.,0.,-7.));
#330=CARTESIAN_POINT('',(20.,0.,-7.));
#331=CARTESIAN_POINT('',(75.,-1.11022302462516E-15,-7.));
#332=CARTESIAN_POINT('',(20.,45.0000000000001,-7.));
#333=CARTESIAN_POINT('',(20.,0.,-7.));
#334=CARTESIAN_POINT('',(75.,45.,-7.));
#335=CARTESIAN_POINT('',(20.,45.0000000000001,-7.));
#336=CARTESIAN_POINT('',(75.,45.,-7.));
#337=CARTESIAN_POINT('',(22.99,16.33,-7.));
#338=CARTESIAN_POINT('Origin',(24.49,16.33,-7.));
#339=CARTESIAN_POINT('',(69.01,16.33,-7.));
#340=CARTESIAN_POINT('Origin',(70.51,16.33,-7.));
#341=CARTESIAN_POINT('',(36.5,16.33,-7.));
#342=CARTESIAN_POINT('Origin',(47.5,16.33,-7.));
#343=CARTESIAN_POINT('Origin',(70.51,16.33,-8.85644284511848E-30));
#344=CARTESIAN_POINT('',(69.01,16.33,7.));
#345=CARTESIAN_POINT('',(69.01,16.33,-8.85644284511848E-30));
#346=CARTESIAN_POINT('Origin',(70.51,16.33,7.));
#347=CARTESIAN_POINT('Origin',(24.49,16.33,-8.85644284511848E-30));
#348=CARTESIAN_POINT('',(22.99,16.33,7.));
#349=CARTESIAN_POINT('',(22.99,16.33,-8.85644284511848E-30));
#350=CARTESIAN_POINT('Origin',(24.49,16.33,7.));
#351=CARTESIAN_POINT('Origin',(52.5,45.,18.5));
#352=CARTESIAN_POINT('',(55.65,45.,18.5));
#353=CARTESIAN_POINT('Origin',(52.5,45.,18.5));
#354=CARTESIAN_POINT('',(55.65,40.,18.5));
#355=CARTESIAN_POINT('',(55.65,45.,18.5));
#356=CARTESIAN_POINT('Origin',(52.5,40.,18.5));
#357=CARTESIAN_POINT('Origin',(20.,40.,7.));
#358=CARTESIAN_POINT('',(75.,40.,7.));
#359=CARTESIAN_POINT('',(20.,40.,7.));
#360=CARTESIAN_POINT('',(33.75,40.,7.));
#361=CARTESIAN_POINT('',(75.,40.,37.));
#362=CARTESIAN_POINT('',(75.,40.,7.));
#363=CARTESIAN_POINT('',(20.,40.,37.));
#364=CARTESIAN_POINT('',(20.,40.,37.));
#365=CARTESIAN_POINT('',(20.,40.,7.));
#366=CARTESIAN_POINT('Origin',(47.5,42.5,37.));
#367=CARTESIAN_POINT('',(75.,45.,37.));
#368=CARTESIAN_POINT('',(75.,40.,37.));
#369=CARTESIAN_POINT('',(20.,45.0000000000001,37.));
#370=CARTESIAN_POINT('',(75.,45.,37.));
#371=CARTESIAN_POINT('',(20.,45.0000000000001,37.));
#372=CARTESIAN_POINT('Origin',(47.5,16.33,-8.85644284511848E-30));
#373=CARTESIAN_POINT('',(36.5,16.33,7.));
#374=CARTESIAN_POINT('',(36.5,16.33,-8.85644284511848E-30));
#375=CARTESIAN_POINT('Origin',(47.5,16.33,7.));
#376=CARTESIAN_POINT('Origin',(75.,45.,0.));
#377=CARTESIAN_POINT('',(20.,45.0000000000001,-2.44053843250904E-29));
#378=CARTESIAN_POINT('',(75.,45.,0.));
#379=CARTESIAN_POINT('Origin',(75.,4.31408307542741E-31,0.));
#380=CARTESIAN_POINT('',(75.,0.,7.));
#381=CARTESIAN_POINT('',(75.,4.31408307542741E-31,7.));
#382=CARTESIAN_POINT('',(75.,4.31408307542741E-31,0.));
#383=CARTESIAN_POINT('Origin',(20.,6.77927340424307E-31,0.));
#384=CARTESIAN_POINT('',(20.,0.,7.));
#385=CARTESIAN_POINT('',(20.,6.77927340424307E-31,7.));
#386=CARTESIAN_POINT('',(20.,0.,0.));
#387=CARTESIAN_POINT('Origin',(20.,45.0000000000001,0.));
#388=CARTESIAN_POINT('',(20.,45.0000000000001,7.));
#389=CARTESIAN_POINT('Origin',(47.5,22.5,7.));
#390=UNCERTAINTY_MEASURE_WITH_UNIT(LENGTH_MEASURE(0.01),#394,
'DISTANCE_ACCURACY_VALUE',
'Maximum model space distance between geometric entities at asserted c
onnectivities');
#391=UNCERTAINTY_MEASURE_WITH_UNIT(LENGTH_MEASURE(0.01),#394,
'DISTANCE_ACCURACY_VALUE',
'Maximum model space distance between geometric entities at asserted c
onnectivities');
#392=(
GEOMETRIC_REPRESENTATION_CONTEXT(3)
GLOBAL_UNCERTAINTY_ASSIGNED_CONTEXT((#390))
GLOBAL_UNIT_ASSIGNED_CONTEXT((#394,#395,#396))
REPRESENTATION_CONTEXT('','3D')
);
#393=(
GEOMETRIC_REPRESENTATION_CONTEXT(3)
GLOBAL_UNCERTAINTY_ASSIGNED_CONTEXT((#391))
GLOBAL_UNIT_ASSIGNED_CONTEXT((#394,#395,#396))
REPRESENTATION_CONTEXT('','3D')
);
#394=(
LENGTH_UNIT()
NAMED_UNIT(*)
SI_UNIT(.MILLI.,.METRE.)
);
#395=(
NAMED_UNIT(*)
PLANE_ANGLE_UNIT()
SI_UNIT($,.RADIAN.)
);
#396=(
NAMED_UNIT(*)
SI_UNIT($,.STERADIAN.)
SOLID_ANGLE_UNIT()
);
#397=SHAPE_DEFINITION_REPRESENTATION(#398,#399);
#398=PRODUCT_DEFINITION_SHAPE('',$,#401);
#399=SHAPE_REPRESENTATION('',(#242),#392);
#400=PRODUCT_DEFINITION_CONTEXT('part definition',#405,'design');
#401=PRODUCT_DEFINITION('Connector V3 22mm bearing hole',
'Connector V3 22mm bearing hole v1',#402,#400);
#402=PRODUCT_DEFINITION_FORMATION('',$,#407);
#403=PRODUCT_RELATED_PRODUCT_CATEGORY(
'Connector V3 22mm bearing hole v1','Connector V3 22mm bearing hole v1',
(#407));
#404=APPLICATION_PROTOCOL_DEFINITION('international standard',
'automotive_design',2009,#405);
#405=APPLICATION_CONTEXT(
'Core Data for Automotive Mechanical Design Process');
#406=PRODUCT_CONTEXT('part definition',#405,'mechanical');
#407=PRODUCT('Connector V3 22mm bearing hole',
'Connector V3 22mm bearing hole v1',$,(#406));
#408=PRESENTATION_STYLE_ASSIGNMENT((#411));
#409=PRESENTATION_STYLE_ASSIGNMENT((#412));
#410=PRESENTATION_STYLE_ASSIGNMENT((#413));
#411=SURFACE_STYLE_USAGE(.BOTH.,#414);
#412=SURFACE_STYLE_USAGE(.BOTH.,#415);
#413=SURFACE_STYLE_USAGE(.BOTH.,#416);
#414=SURFACE_SIDE_STYLE('',(#417));
#415=SURFACE_SIDE_STYLE('',(#418));
#416=SURFACE_SIDE_STYLE('',(#419));
#417=SURFACE_STYLE_FILL_AREA(#420);
#418=SURFACE_STYLE_FILL_AREA(#421);
#419=SURFACE_STYLE_FILL_AREA(#422);
#420=FILL_AREA_STYLE('Aluminum - Satin',(#423));
#421=FILL_AREA_STYLE('Steel - Satin',(#424));
#422=FILL_AREA_STYLE('Aluminum - Bead Blasted',(#425));
#423=FILL_AREA_STYLE_COLOUR('Aluminum - Satin',#426);
#424=FILL_AREA_STYLE_COLOUR('Steel - Satin',#427);
#425=FILL_AREA_STYLE_COLOUR('Aluminum - Bead Blasted',#428);
#426=COLOUR_RGB('Aluminum - Satin',0.96078431372549,0.96078431372549,0.964705882352941);
#427=COLOUR_RGB('Steel - Satin',0.627450980392157,0.627450980392157,0.627450980392157);
#428=COLOUR_RGB('Aluminum - Bead Blasted',0.96078431372549,0.96078431372549,
0.964705882352941);
ENDSEC;
END-ISO-10303-21;
